<svg version="1.2" xmlns="http://www.w3.org/2000/svg" viewBox="0 0 3000 3000" width="3000" height="3000">
	<title>logo</title>
	<defs>
		<linearGradient id="g1" x1="58.9" y1="92.6" x2="2935.6" y2="2969.3" gradientUnits="userSpaceOnUse">
			<stop offset="0" stop-color="#045e2b"/>
			<stop offset=".01" stop-color="#045e2b"/>
			<stop offset=".495" stop-color="#008037"/>
			<stop offset="1" stop-color="#045e2b"/>
		</linearGradient>
	</defs>
	<style>
		.s0 { fill: url(#g1) } 
		.s1 { fill: #000000 } 
	</style>
	<path id="Path 0" fill-rule="evenodd" class="s0" d="m1489.7 61.9c65.2-0.2 107.7 1 139.2 4.1 25 2.5 66.5 7.8 92.3 11.8 25.8 4 62 10.7 80.6 14.8 18.5 4.1 54.7 13.3 80.5 20.3 25.8 7 66.7 19.6 90.8 28 24.2 8.3 61.1 22.3 82.1 31.1 20.9 8.8 57.2 25.6 80.5 37.3 23.4 11.7 60.3 31.6 82.1 44.1 21.7 12.5 55.3 33.4 74.7 46.4 19.3 13 52.9 37 74.7 53.4 21.7 16.5 54.7 42.9 73.1 58.8 18.5 15.9 52.1 47.4 74.7 70 22.7 22.6 54.2 56.2 70.1 74.7 15.9 18.5 42.3 51.4 58.7 73.2 16.4 21.7 39.1 53.4 50.5 70.3 11.4 16.9 32 50.2 46 74 13.9 23.7 33.9 60.3 44.4 81.3 10.4 20.9 26.8 56.2 36.3 78.3 9.4 22.2 23.2 56.8 30.5 76.9 7.3 20.2 19.2 56.4 26.4 80.6 7.2 24.2 17.9 65 23.6 90.8 5.8 25.8 13.8 68 17.8 93.8 4 25.8 9.3 68.6 11.7 95.2 2.9 30 4.6 79.2 4.6 129.6-0.1 60.6-1.6 96.1-6 139.2-3.2 31.8-8.6 73.7-11.9 93-3.3 19.3-10 54.3-14.9 77.6-4.9 23.4-15.5 64.9-23.4 92.3-8 27.4-23.5 73.6-34.5 102.6-11 29-24.3 62.6-39.1 96.7l19.4 39.5c10.7 21.8 23.5 50.8 28.5 64.5 5 13.7 12.9 40 17.7 58.5 4.8 18.6 10.6 48.6 13 66.7 2.3 18.1 4.3 53.4 4.3 78.4 0 24.9-2 60.2-4.4 78.3-2.4 18.2-7.7 46.5-11.7 63-4.1 16.5-12.1 42.9-17.9 58.6-5.9 15.7-17 41.8-24.8 57.9-7.8 16.1-25.9 47.1-40.4 68.8-14.4 21.8-37.2 51.7-50.7 66.6-13.4 14.8-35.7 37-49.3 49.3-13.7 12.3-40.8 32.9-60.1 45.9-19.3 13.1-52.3 32.1-73.2 42.3-21 10.2-52 23.1-68.9 28.7-16.9 5.6-38.7 12.1-48.3 14.5-9.7 2.5-34.1 7.1-54.2 10.4-26.5 4.3-50.3 6-85.7 6-38.8 0-57.8-1.5-90.8-7.2-23-3.9-55.6-11.1-72.6-15.9-16.9-4.8-43.2-13.8-58.6-20-15.3-6.3-39.6-17.8-54.2-25.7-14.5-7.9-40.8-24.1-90.8-57.8l-43.9 12c-24.2 6.7-58.5 15.3-76.2 19.3-17.7 4-51.3 10.6-74.7 14.5-23.4 4-61.6 9.4-85 12-23.3 2.7-78.7 5.5-123 6.4-48.4 1-100.5 0.2-130.4-1.8-27.4-1.9-64.9-5.3-83.5-7.7-18.5-2.4-52.8-7.8-76.1-12-23.4-4.2-61-12.1-83.5-17.6-22.6-5.5-51.9-13.3-65.2-17.2-19.6-5.9-24-8.2-23-12.4 0.6-2.8 112.1-235.8 247.7-517.8 135.6-282 261.8-543.7 280.3-581.6 18.5-37.8 34.3-69.1 35-69.5 0.7-0.5 37.2 16.2 81.1 37 43.9 20.7 87.7 39.8 97.4 42.4 10.2 2.7 29.3 4.7 45.4 4.7 15.3 0 36.1-2 46.1-4.4 10.1-2.4 28.6-9.2 41.1-15.3 16.7-8 28.6-16.7 45-32.9 20.6-20.3 24.3-25.9 47.3-71.8 13.7-27.4 43.7-88.7 66.6-136.3 22.9-47.5 61.8-128.6 86.4-180.1 24.5-51.6 47.5-103 51-114.3 4.7-15.3 6.3-28 6.2-49.8 0-16.4-2-37-4.5-46.9-2.4-9.6-9.2-27.4-15.1-39.5-8-16.5-16.6-27.9-34.4-45.7-20.3-20.2-28.8-26.2-58.9-41.4-19.3-9.8-156.4-76.1-304.6-147.4-148.3-71.3-287.4-137.8-309.1-147.9-21.8-10.1-47.5-20.7-57.2-23.6-12.1-3.7-26.5-5.3-46.8-5.2-18.1 0.1-36.6 2.1-48.4 5.2-10.4 2.8-29.5 10.6-42.4 17.3-15.3 8-29.9 18.8-42.5 31.3-10.5 10.5-22.8 25.6-27.4 33.7-4.5 8-34.7 69.3-67 136.2-32.3 66.8-78.8 163.7-103.4 215.3-24.5 51.6-46.8 100-49.4 107.7-2.6 7.6-6.2 23.4-8 35.1-1.8 11.7-2.4 29.2-1.3 38.8 1.1 9.7 3.3 23.6 5 30.8 1.7 7.3 8.4 24.4 14.9 38.1 9.5 20 16.4 29.6 59.3 72.5l84.3 41.4c46.3 22.7 84.2 42.7 84.2 44.3 0 1.6-11.7 27.6-26 57.9-14.3 30.2-128.2 267.8-253.2 528-124.9 260.3-239.7 499.2-283.3 588.9l-18.3-12.2c-10.1-6.7-35.5-25-56.4-40.7-21-15.7-51.2-39.5-67.3-53-16.1-13.5-48.9-43.6-72.9-66.9-24.1-23.4-58.9-59.7-77.3-80.6-18.5-21-47-55.9-63.5-77.7-16.4-21.7-40.5-55.3-53.4-74.7-12.9-19.3-29.5-45-36.8-57.1-7.3-12.1-22.8-39.8-34.5-61.5-11.6-21.8-29-56.7-38.7-77.6-9.7-21-22.9-51.3-29.3-67.4-6.5-16.1-17.6-46.5-24.8-67.4-7.2-21-18.3-56.6-24.7-79.1-6.4-22.6-16.2-62.1-21.7-87.9-5.5-25.8-12.7-65.3-15.9-87.9-3.2-22.6-8.1-62.8-10.8-89.4-3.9-38.9-4.5-67.4-3.3-146.4 1.3-82.4 2.8-107.1 9-153.8 4.1-30.7 10.9-73.5 15.1-95.3 4.2-21.7 13-60.6 19.6-86.4 6.5-25.8 18.4-66.6 26.4-90.8 7.9-24.2 21.7-62.4 30.7-85 8.9-22.5 28.4-66 43.4-96.6 14.9-30.7 40.7-78.1 57.2-105.5 16.5-27.4 37.3-60.4 46.3-73.3 9-12.8 26.2-36.6 38.2-52.7 12.1-16.1 34.5-44.5 49.8-63 15.3-18.5 49.1-55.2 74.9-81.6 25.9-26.3 60.9-60.1 77.9-75 16.9-14.9 49.2-41.3 71.7-58.7 22.6-17.4 61.5-45.1 86.5-61.6 24.9-16.5 60.5-38.6 79.1-49 18.5-10.5 49.8-27.1 69.5-37 19.8-9.9 54.1-25.7 76.2-35.2 22.2-9.4 56.8-23.1 76.9-30.4 20.2-7.3 57.1-19.3 82-26.7 25-7.3 62.6-17.2 83.5-22 21-4.7 58.6-12.1 83.5-16.4 25-4.2 66.5-10.1 92.3-13.1 34.6-3.9 71.5-5.3 140.6-5.6zm692.9 1816c-15.3 3.4-39.7 10.2-54.2 15-14.5 4.8-41.5 16-60 24.9-18.6 8.9-41.6 21-51.3 26.8-9.7 5.8-29.5 19.3-44 30.1-14.5 10.7-38.3 31.2-52.8 45.6-14.6 14.3-33.6 34.7-42.3 45.1-8.7 10.5-23.6 30.9-33.1 45.4-9.6 14.5-25.1 42.2-34.4 61.6-9.4 19.3-21.2 47.6-26.4 63-5.2 15.3-12.5 42.3-16.3 60-3.8 17.7-8.4 50.7-10.1 73.3-2.2 28.5-2.3 53-0.2 80.5 1.7 21.8 5.7 52.8 9 68.9 3.3 16.1 9.9 41.1 14.6 55.6 4.6 14.5 13.2 37.6 18.9 51.3 5.8 13.7 17.4 37.1 25.9 51.9 8.5 14.9 24.9 39.9 36.4 55.7 11.6 15.7 38.6 45.8 60.1 66.8 27.4 26.8 49.1 44.9 72.7 60.7 18.5 12.3 48.9 29.6 67.4 38.5 18.5 8.9 49.5 21.5 68.8 27.9 19.4 6.4 51 14.7 70.4 18.4 30.1 5.7 44.3 6.7 99.6 6.5 58.2-0.1 68-0.9 101-7.9 20.2-4.2 49.2-11.8 64.5-16.8 15.3-5 48.9-19.6 74.7-32.4 25.8-12.8 59.4-32.1 74.7-43 15.4-10.9 45.5-37.4 67.4-59.3 22.5-22.4 48.2-51.6 59.3-67.4 10.9-15.3 29.5-47.6 41.5-71.8 12-24.1 25.8-56.4 30.7-71.7 4.8-15.4 10.8-35.8 13.2-45.5 2.4-9.6 6.4-31.4 8.9-48.3 2.6-17.9 4.5-50.4 4.5-77.6 0-25.8-1.9-60.1-4.1-76.2-2.3-16.1-7.7-43.1-12-60.1-4.3-16.9-12.4-42.6-18.2-57.1-5.7-14.5-16.3-38.2-23.5-52.7-7.2-14.5-20.4-37.6-29.3-51.3-8.8-13.7-24.4-34.8-34.6-46.9-10.1-12.1-30-33.3-44.2-47.1-14.3-13.8-32.5-30.4-40.5-36.9-8.1-6.6-25.9-19.2-39.6-28.2-13.7-8.9-40.1-23.5-58.6-32.4-18.5-8.8-47.5-20.9-64.4-26.7-17-5.8-47.3-13.9-67.4-18-29.9-6-47.5-7.5-95.2-8.5-32.3-0.6-67.9 0.1-79.1 1.5-11.3 1.5-33.1 5.4-48.4 8.8zm-760.2-1102.5c6.4 0.9 22.2 5.9 35.1 11.3 12.9 5.3 48.5 21.8 79.1 36.6 30.6 14.8 86 41.4 123.1 59.2 37 17.7 68.4 33 69.7 34.1 1.3 1-6.1 20.3-16.5 42.9-10.3 22.5-24.9 53.2-32.3 68.1-7.5 14.9-14.9 27.1-16.5 27.1-1.6 0-26.4-11.1-55-24.6-28.6-13.6-66.5-31.5-84.2-39.9-17.7-8.3-37.5-17.1-43.9-19.4-6.5-2.3-16-4.1-21.3-4.1-5.2 0.1-13.1 1.9-17.6 4.1-4.4 2.2-12.2 10.4-17.4 18.3-5.1 7.9-28.4 53.9-51.6 102.2-23.2 48.3-47 98.8-52.8 112.1-6.3 14.2-10.7 28.7-10.6 35.1 0 6.1 2.7 15.6 5.8 21.3 3.9 6.8 12.4 13.9 25.6 21.4 10.8 6.1 51.4 26.4 90.1 45 38.6 18.7 73.2 35.1 76.9 36.5 4.8 1.8 6.2 4.3 5.2 9.1-0.7 3.7-15.2 35.3-32.2 70.3-17 35.1-31.6 63.8-32.4 63.8-0.8 0-9-3.9-18.3-8.5-9.2-4.7-70.2-34.2-135.5-65.5-65.2-31.4-125.2-60.9-133.3-65.7-9.2-5.4-18.7-14.5-25.5-24.6-6-8.7-13-23.8-15.4-33.5-3.6-14.1-3.9-21-1.4-35.2 2.3-12.4 17.2-46.8 50.8-117.1 26.2-54.8 73.3-152.8 104.5-217.9 35.3-73.2 60.8-122.7 67.2-130 5.6-6.5 16.2-15.3 23.4-19.4 7.3-4.2 20.5-9.2 29.3-11.2 8.9-1.9 21.4-2.8 27.9-1.9zm396.6 185.5c1 0 34.8 15.6 75 34.8 40.3 19.1 105.6 50.6 145.1 69.8 60.9 29.7 73.9 37.2 85.8 49.5 8.5 8.7 16.3 20.4 19.8 29.8 3.6 9.8 5.7 22.5 5.6 35.1-0.1 16.7-1.9 23.8-11.4 44.7-6.3 13.7-35.7 75.7-65.6 137.7-29.8 62-66.9 139.2-82.6 171.4-15.6 32.2-34.2 70.8-41.3 85.7-7.1 14.9-18.5 33.2-25.3 40.6-6.9 7.5-19.1 16.9-27.1 21-10.1 5.1-21.1 7.8-35.2 8.8-17.6 1.1-23.2 0.2-39.5-6.7-10.5-4.4-27-11.7-36.7-16.2-9.6-4.4-43.9-20.6-76.1-35.9-32.3-15.3-83.7-39.9-114.3-54.7-30.6-14.8-56.3-27.5-57.1-28.2-0.8-0.7 2.3-9.5 7-19.5 4.7-10.1 18.8-39.4 31.4-65.2 12.5-25.8 23.9-48.6 25.2-50.7 1.7-2.8 15.3 2.7 55 22.3 29 14.3 71.9 35 95.3 45.9 37.2 17.6 44.1 19.9 55.6 18.8 7.4-0.8 17.9-4.5 24-8.6 8-5.4 14.2-14.2 24.5-35 7.6-15.4 33.6-69.4 57.8-120.2 25.4-53.3 44.6-97.2 45.4-104 1-7.9-0.4-15.4-4.1-23-3.3-6.8-10.7-14.6-18.7-19.6-7.2-4.6-48.1-25-90.8-45.4-42.7-20.3-80.6-38.5-84.3-40.4-3.7-1.9-6.6-4.4-6.6-5.6 0-1.2 4.8-13.1 10.6-26.4 5.8-13.3 19.8-43.6 31.1-67.3 11.4-23.8 21.4-43.3 22.5-43.3zm-332.3 117.2c1.7-0.1 43.3 19.2 92.4 42.7 49.1 23.6 117 56.1 150.9 72.2 33.8 16.2 74.4 35.8 118.6 58l-4.7 11c-2.6 6-16.6 36-31 66.6-14.4 30.6-27.4 57-28.9 58.6-1.7 1.9-8 0.3-18.1-4.8-8.5-4.3-60.2-29.1-115-55.3-54.8-26.1-129-61.9-164.8-79.4-35.9-17.5-65.2-32.9-65.2-34.1 0.1-1.2 12.1-27.2 26.7-57.8 14.7-30.7 28.8-60.6 31.4-66.7 2.6-6 6.1-11 7.7-11zm-125.3 492.1c1.3 0 24.1 10.4 50.7 23.1 26.6 12.8 64.8 31.1 85 40.8 20.1 9.7 38.7 19.4 41.4 21.6 4.3 3.6 2.7 8.3-17.6 50.2-12.3 25.4-23.7 46.2-25.3 46.2-1.6-0.1-16.1-6.4-32.2-14-16.1-7.7-53.7-26-83.5-40.8-29.8-14.7-56.6-28.6-59.5-30.8-5-3.7-4-6.7 16.7-50 12.1-25.4 23-46.2 24.3-46.3zm-88.1 181.8c0.6 0 35.7 16.5 78 36.8 42.3 20.2 82.5 40 89.4 43.9 6.8 3.9 12.4 8.8 12.4 10.8 0 2-9.9 23.8-43.9 93l-21.3-9.9c-11.6-5.4-52.5-25.2-90.8-43.9-38.2-18.7-69.6-35.4-69.6-37 0-1.6 10.1-23.4 22.4-48.3 12.2-25 22.8-45.4 23.4-45.4zm-86.8 184.5c1.6 0 23.1 9.6 47.6 21.2 24.6 11.7 64.8 31.1 134.2 65.2l-23.5 47.7c-12.9 26.1-24.2 47.6-25 47.6-0.8 0-40.7-18.8-88.6-41.8-47.9-23-88.8-42.8-90.8-44-2.7-1.5 2.7-14.9 19.8-49 12.9-25.8 24.7-46.9 26.3-46.9zm-89.3 181.7c0.8 0 24.8 11 53.4 24.5 28.6 13.5 68.2 32.6 87.9 42.5 19.8 9.8 36.7 19.6 37.6 21.6 0.9 2-8 23.8-19.8 48.4-11.8 24.6-22.8 44.7-24.4 44.6-1.6-0.1-29.9-12.8-63-28.3-33-15.5-72.9-34.6-88.6-42.4-15.7-7.8-28.5-14.9-28.5-15.7 0-0.8 6.7-16.3 15-34.4 8.2-18.2 18.1-39.3 22-46.9 3.8-7.7 7.6-13.9 8.4-13.9zm-88.3 181.5c0.2 0 24.8 11.7 54.6 26 29.8 14.3 71 34.1 91.5 44 20.6 9.9 37.4 18.7 37.4 19.5 0 0.8-10.2 22.2-22.7 47.6-12.5 25.3-23.1 46.4-23.5 46.8-0.4 0.4-22.8-9.6-49.8-22.4-27-12.7-66.8-31.6-88.6-41.8-21.7-10.3-40.5-20.3-41.7-22.3-1.3-2 7.2-23.3 20.1-50.4 12.3-25.8 22.5-46.9 22.7-47zm-86.2 184.7c1.7 0 43 19.2 91.7 42.7 48.7 23.5 89 42.9 89.4 43.2 0.5 0.3-8.8 20.9-20.6 45.9-11.7 25-23 46.4-24.9 47.6-2.1 1.3-26.6-8.7-58.5-23.8-30.3-14.3-70.5-33.4-89.4-42.5-18.9-9-34.3-17.6-34-19 0.2-1.4 10-23.2 21.8-48.3 11.8-25.2 22.9-45.8 24.5-45.8zm-88.8 181.6c0.6 0 40.9 19.2 89.7 42.6 48.7 23.4 89.6 43.5 90.9 44.7 1.2 1.1-7 20.9-18.3 43.8-12.9 26-22.3 41.8-25 41.8-2.4 0-25.2-9-50.5-19.9-25.4-10.9-64.4-29.7-86.6-41.7-24.5-13.3-40.4-23.7-40.3-26.3 0-2.4 8.8-22.5 19.6-44.7 10.7-22.2 20-40.3 20.5-40.3zm1547.9-697.1c5.7 0 14.8 3 20.3 6.5 5.6 3.6 18.1 16.4 27.9 28.5 9.8 12.1 27.5 36.4 39.3 54.2 11.9 17.7 31.3 52 43.1 76.2 11.8 24.1 26.6 59.1 33 77.6 6.3 18.5 14.9 48.9 19.1 67.4 4.2 18.5 9.7 50.2 12.4 70.3 3.7 28.4 4.4 50.7 3.2 99.6-0.9 37.2-3.5 74.4-6.3 90.8-2.6 15.3-7.9 40.4-11.8 55.7-3.9 15.3-11.6 41-17.1 57.1-5.4 16.1-15 40.5-21.2 54.2-6.3 13.7-17.1 35.5-24.2 48.4-7 12.9-21.1 35.9-31.2 51.2-10.2 15.3-21.6 30.9-25.4 34.5-3.8 3.6-11.5 7.7-17.1 9-5.7 1.3-14.6 1.3-19.8 0-5.2-1.4-12.8-6.4-16.8-11.2-5.6-6.7-7.3-12.1-7.3-22.7 0.1-12.4 2.6-17.8 23.1-49.1 12.6-19.3 27.1-42.4 32-51.3 5-8.8 15.1-30.6 22.5-48.3 7.5-17.7 18.2-47.4 23.8-65.9 5.6-18.6 12.8-48.9 16-67.4 3.2-18.6 6.6-54.1 7.6-79.1 1.1-28 0.4-58.9-1.9-80.6-1.9-19.3-6.1-47.7-9.2-63-3.1-15.3-9.7-41-14.7-57.1-5-16.1-15-43.1-22.2-60.1-7.3-16.9-19.8-42.6-27.9-57.1-8.2-14.5-18.8-32.3-23.8-39.5-4.9-7.3-20.5-28.1-34.7-46.2-23.4-29.8-25.8-34.1-25.7-45.4 0-6.8 1.7-15.4 3.6-19 2-3.6 7.6-9.2 12.4-12.5 4.8-3.2 13.4-5.8 19-5.7zm-104.4 97c5.9 1.4 16 9.5 27.8 22.1 10.2 11 27.5 33.1 38.5 49.2 10.9 16.1 27.1 43.8 35.9 61.5 8.9 17.8 19.7 42.1 24 54.2 4.3 12.1 11 34.5 14.8 49.8 3.8 15.3 8.6 37.8 10.7 49.8 2.2 12.8 3.8 45.3 3.9 77.7 0 33.6-1.5 64.3-3.9 77.6-2.1 12.1-6.9 34.5-10.7 49.8-3.8 15.3-10.5 37.7-14.8 49.8-4.3 12.1-14.8 35.8-23.3 52.8-8.5 16.9-23.2 42.6-32.8 57.1-9.5 14.5-21.8 31.4-27.4 37.6-6.2 6.9-14.2 12.2-21 13.9-8.6 2.1-13.4 1.6-21.8-2.4-5.9-2.9-13.3-8.5-16.4-12.5-3.6-4.7-5.5-12-5.5-20.5 0-11.3 2.4-16.7 17.4-38.1 9.5-13.7 23.4-35.4 30.7-48.3 7.4-12.9 18.3-35.3 24.3-49.8 6-14.5 14.7-41.6 19.3-60.1 5.5-21.9 9.5-47.6 11.3-73.2 1.8-24.6 1.8-51.2 0.1-70.3-1.5-17-4.8-41.4-7.4-54.2-2.7-12.9-8.8-35.3-13.7-49.8-4.9-14.6-13.8-37-19.7-49.9-6-12.8-18.2-34.6-27.1-48.3-8.9-13.7-25.6-36.8-37.1-51.3-11.5-14.5-21.4-29.6-22.1-33.7-0.7-4-0.1-11.2 1.3-16.1 1.3-4.8 5.4-11.8 9.1-15.4 3.7-3.7 11.2-7.7 16.6-9 5.4-1.3 14-1.3 19 0zm-127 93.3q10.2-0.2 22 8.2c6.4 4.6 17.7 15.5 25.1 24.3 7.4 8.7 18.8 23.7 25.3 33.4 6.6 9.7 16.8 27.5 22.8 39.5 6.1 12.1 13.6 28.6 16.7 36.7 3.2 8 9.2 27.8 13.3 43.9 6.9 26.5 7.7 34.7 7.7 85 0.1 51-0.5 58.1-7.6 84.9-4.3 16.2-12.6 40.5-18.5 54.2-5.8 13.7-16 34.2-22.6 45.4-6.6 11.3-17.5 27.8-24.3 36.7-6.9 8.8-16.9 20.4-22.3 25.7-6.4 6.3-13.8 10.2-21.5 11.3-8 1.2-14.8 0.3-21.2-3q-9.6-4.7-15.4-17.9c-3.9-8.6-5.2-16-4-21.3 1.1-4.4 10.9-19.9 21.8-34.4 10.9-14.5 26.5-40.2 34.6-57.1 8.1-16.9 17.7-42.6 21.3-57.1 5.3-21.5 6.5-34.3 6.4-68.9-0.2-36.2-1.3-46.8-7.9-71.8-4.3-16.2-14.3-42.4-22.4-58.6-9.3-18.5-23.8-40.6-39.6-60-22.4-27.8-24.8-32-24.9-43.2 0-7 2.3-15.7 5.1-19.9 2.8-4.1 8.4-9.4 12.5-11.6 4-2.3 12-4.3 17.6-4.4zm-112.1 85c5.3-0.1 13.2 1.8 17.6 4 4.4 2.2 18 14.4 30 27.2 16.6 17.4 25.4 30 35.8 50.9 7.5 15.2 15.7 35.6 18.2 45.3 2.4 9.7 5.3 28.1 6.4 41 1.1 13.5 0.6 33.4-1.4 46.9-1.8 12.9-6.6 33.3-10.7 45.4-4.1 12.1-12.9 31.2-19.5 42.5-6.7 11.2-22.8 31.2-35.8 44.3-17.3 17.5-26.1 24.2-32.5 24.9-4.8 0.6-12.8 0.5-17.6-0.3-4.8-0.7-12.4-5-16.8-9.5-4.5-4.5-8.9-12.5-9.9-17.7-1-5.2-1.1-12.8-0.2-16.8 0.8-4.1 10.7-17.2 21.9-29.3 11.1-12.1 24.3-29.3 29.3-38.1 4.9-8.9 11.2-24 13.9-33.7 2.9-10.5 4.9-27.7 4.8-42.5q-0.2-24.9-6.2-43.9c-3.3-10.5-9.9-25.7-14.6-33.7-4.8-8.1-17.3-24.2-27.9-35.9-17.7-19.6-19.2-22.3-19.2-34.4 0-7.3 1.3-15.9 2.9-19.1 1.6-3.2 7.3-8.5 12.5-11.7 5.2-3.2 13.8-5.8 19-5.8z"/>
	<path id="Şekil 1" class="s1" d=""/>
</svg>