<svg version="1.2" xmlns="http://www.w3.org/2000/svg" viewBox="0 0 6250 2216" width="6250" height="2216">
	<title>sonn</title>
	<style>
		.s0 { fill: #008037 } 
	</style>
	<g id="Background">
		<path id="Path 0" class="s0" d="m654.2 1790.3c-10.4 21.7-11 23.3-9.4 24.7 1 0.8 10.5 6.1 21.2 11.7 10.7 5.6 25.1 12.8 32 15.9 6.9 3.1 19.4 8.5 27.7 12 8.4 3.5 15.5 6.4 15.8 6.4 0.3 0 5.5-10.2 11.6-22.7 6.1-12.6 11.1-23.1 11.2-23.5 0.1-0.4-21.7-11.4-48.6-24.3-26.8-12.9-49.1-23.5-49.6-23.5-0.4 0-5.8 10.5-11.9 23.3z"/>
		<path id="Path 1" class="s0" d="m707.1 1680.3c-3.2 6.7-8.8 18.4-12.5 26l-6.6 13.7c26.7 12.9 48.7 23.5 66 31.8 17.3 8.3 32 15.2 32.5 15.2 0.5 0 6.5-11.6 13.3-25.7 6.7-14.2 12.1-25.9 12-26-0.2-0.1-22.3-10.8-49.3-23.8-27-12.9-49.1-23.5-49.3-23.5-0.1 0-2.9 5.5-6.1 12.3z"/>
		<path id="Path 2" fill-rule="evenodd" class="s0" d="m5998.8 1624.2c0.1-0.1 0.2 5.2 0.2 23.8h-3c-1.6 0-3 0.3-3 0.7 0 0.5 0.6 1.7 1.4 2.8 0.8 1.1 2.4 4.9 3.6 8.5 1.5 4.5 2.1 9 2.1 14.5 0.1 4.4-0.5 10-1.1 12.5-0.7 2.5-2.4 6.7-3.8 9.5-1.4 2.7-4.8 7.3-7.6 10.1-2.8 2.8-7.8 6.4-11.1 8.1-3.3 1.7-7.4 3.3-9 3.8-1.6 0.4-5.5 1.1-8.5 1.5-3.1 0.5-8.7 0.4-13-0.1-4.8-0.6-10.1-2.2-14.5-4.3-3.9-1.8-9.4-5.5-12.4-8.2-3.5-3.3-6.4-7.2-8.7-11.9q-3.4-7-4.2-14c-0.5-3.8-0.5-9.7-0.1-13 0.4-3.3 1.9-8.9 3.3-12.5 1.4-3.6 2.6-6.8 2.6-7.3 0-0.4-1.1-0.7-5-0.7v-23l45.7-0.3c25.2-0.1 45.9-0.3 46-0.5zm-66.5 28c-1.5 2.4-3.4 7.2-4.1 10.8-0.8 3.9-1.1 8.5-0.7 11.5 0.3 2.7 1.5 6.8 2.7 9 1.1 2.2 3.3 5.2 4.7 6.8 1.5 1.5 4.9 3.7 7.7 4.9 3.3 1.4 7 2.1 11 2.1 4.3 0 7.4-0.7 11-2.5 2.7-1.4 6.5-4.3 8.3-6.4 1.8-2.1 4-6.2 4.8-8.9 1.2-3.6 1.5-6.9 1.1-12-0.4-4.9-1.5-8.8-3.6-13.3l-3.1-6.2h-37z"/>
		<path id="Path 3" class="s0" d="m748.4 1594.2c-6.5 13.7-12 25.6-12.1 26.4-0.2 0.8 1.5 2.2 4 3.3 2.3 1 24.5 11.6 49.2 23.5 24.8 11.8 45.1 21.5 45.1 21.3 0.1-0.1 5.6-11.6 12.3-25.5 6.7-13.8 12.2-25.6 12.3-26 0.1-0.5-21.8-11.3-48.8-24.2-26.9-12.8-49.2-23.5-49.5-23.6-0.3-0.1-5.9 11-12.5 24.8z"/>
		<path id="Path 4" class="s0" d="m5991 1517.7c-4.1 2.5-16.5 10.1-27.5 16.8l-20 12.3c-27.1-25.2-35.3-32.4-35.8-32.2-0.4 0.2-0.7 6.1-0.7 13.1v12.8c29.5 29.5 38 38.3 38 38.7 0 0.5-16.4 0.8-36.5 0.8h-36.5v24h127v-24h-21l-16-18c28.1-17.4 36.5-23 36.7-23.5 0.2-0.6 0.2-6.5 0.1-13.2l-0.3-12.2z"/>
		<path id="Path 5" class="s0" d="m5907.5 1477.7c-0.5 0.3-0.8 5.7-0.7 12l0.2 11.3h92v-24c-70.3 0-91 0.3-91.5 0.7z"/>
		<path id="Path 6" class="s0" d="m5876.3 1477.9c-1.8 1.2-4 3.4-4.8 5.1-0.8 1.7-1.5 4.5-1.5 6.2 0 1.8 0.9 4.8 2 6.5 1.1 1.8 3 4 4.2 4.8 1.3 0.8 3.9 1.8 5.8 2.1 2.4 0.5 4.7 0.1 7.4-1.2 2.1-1.1 4.7-3 5.6-4.4 0.9-1.4 2-3.8 2.2-5.4 0.3-1.6 0.2-4.3-0.3-6-0.4-1.7-2.2-4.4-3.9-6.1-2.5-2.4-4.2-3.1-8.3-3.3-3.9-0.2-6 0.2-8.5 1.7z"/>
		<path id="Path 7" class="s0" d="m795.2 1496.8c-6.7 14.1-11.9 26-11.5 26.3 0.5 0.4 22.6 11.1 49.3 23.8 26.7 12.8 48.8 22.9 49.2 22.4 0.4-0.4 5.8-11.6 12.2-24.8 6.3-13.2 11.6-24.6 11.8-25.2 0.2-0.8-18.6-10.4-48.5-24.8-26.8-12.9-49-23.5-49.5-23.5-0.4 0-6.2 11.6-13 25.8z"/>
		<path id="Path 8" class="s0" d="m5328 1483.5v17.5h36v-35h-36z"/>
		<path id="Path 9" class="s0" d="m5872 1443v12h127v-24h-127z"/>
		<path id="Path 10" class="s0" d="m5399 1448v18h35v-36h-35z"/>
		<path id="Path 11" class="s0" d="m5872.5 1385.7c-0.5 0.3-0.8 5.7-0.7 12l0.2 11.3h127v-23.9c-97.4-0.1-126 0.2-126.5 0.6z"/>
		<path id="Path 12" class="s0" d="m3606 1378.9c-1.9 0.4-5.3 1.6-7.4 2.7-2.2 1-5.2 3.5-6.8 5.4-1.6 1.9-3.6 5.7-4.4 8.5-1.2 4-1.3 6.2-0.4 11 0.6 3.3 2.2 7.9 3.5 10.2 1.5 2.5 4.3 5.3 6.8 6.8 2.3 1.3 4.9 2.5 5.7 2.5 0.8 0 2.1 0.4 2.7 0.8 1 0.5-0.1 4.9-4.2 17.2-3 9.1-5.5 16.8-5.5 17.2 0 0.5 4.6 0.8 10.3 0.8h10.2c13.7-38.4 18.1-51.6 18.6-54.3 0.6-2.9 0.5-6.6-0.1-9.7-0.6-2.8-1.6-6.2-2.4-7.8-0.8-1.5-2.7-3.9-4.3-5.3-1.5-1.5-4.1-3.4-5.8-4.2-1.7-0.8-5.3-1.8-8-2-2.8-0.3-6.6-0.2-8.5 0.2z"/>
		<path id="Path 13" class="s0" d="m842.6 1398.1l-12.6 25.9c10.5 5.2 32.4 15.8 55.5 26.8 23.1 11.1 42.5 20.2 43 20.2 0.5 0 6.5-11.4 13.2-25.5 6.8-14 12.2-25.7 12-25.9-0.1-0.3-20.9-10.5-46.2-22.7-25.3-12.1-47.4-22.7-49.1-23.5l-3.2-1.3z"/>
		<path id="Path 14" class="s0" d="m5907.2 1351.8l0.3 11.7 91.5 0.5v-24h-92.1z"/>
		<path id="Path 15" class="s0" d="m5876.3 1341c-1.8 1.1-4 3.3-4.8 5-0.8 1.7-1.5 4.3-1.5 6 0 1.7 0.7 4.3 1.5 6 0.8 1.7 3 4 4.7 5.2 2 1.2 4.9 2.1 7.3 2.1 2.2 0 5.4-0.8 7.2-1.9 1.8-1 4-3.2 4.9-4.9 1-1.7 1.7-4.6 1.7-6.5 0-1.9-0.7-4.8-1.7-6.5-0.9-1.7-3-3.8-4.6-4.8-1.7-0.9-4.9-1.7-7.3-1.7-2.4 0-5.5 0.8-7.5 2z"/>
		<path id="Path 16" fill-rule="evenodd" class="s0" d="m5470 1324h247v248l-246.5-0.5zm35 212h177v-176h-177z"/>
		<path id="Path 17" class="s0" d="m5540 1448v53h106v-106h-106z"/>
		<path id="Path 18" fill-rule="evenodd" class="s0" d="m4834 1324h247l-0.5 247.5-246.5 0.5zm35 212h177v-176h-177z"/>
		<path id="Path 19" class="s0" d="m4905 1448v53h106v-106h-106z"/>
		<path id="Path 20" class="s0" d="m889.9 1299.5c-6.8 14-12.2 25.7-11.9 25.9 0.3 0.3 22.5 11.1 49.5 24 27 13 49.1 23.5 49.2 23.3 0.1-0.1 5.6-11.4 12.2-25.2 6.7-13.8 12.1-25.5 12.1-26 0-0.5-21.7-11.5-48.2-24.2-26.6-12.8-48.8-23.3-49.4-23.3-0.6 0-6.7 11.5-13.5 25.5z"/>
		<path id="Path 21" class="s0" d="m5960.3 1249.5c-3.2 1.7-6.3 4.3-8.1 6.8-1.6 2.3-3.7 6-4.6 8.2-0.9 2.2-3.2 9.8-5 17-1.8 7.2-4 14.2-5 15.8-1.2 2.1-2.3 2.7-5.1 2.7-2.9 0-3.9-0.6-5.5-3.3-1.5-2.4-2-5-2-10.7 0-4.5 0.8-10.7 2.1-15.5 1.2-4.4 2.3-8.9 2.6-10 0.4-1.7-0.8-2.6-7.4-5.8-4.5-2.2-8.4-3.4-9-3-0.7 0.4-2.4 4.8-3.8 9.8-1.9 6.4-2.9 12.3-3.3 20.5-0.5 10.3-0.3 12.2 1.9 19 1.8 5.5 3.5 8.7 6.9 12.3 2.8 3 6.2 5.5 9 6.5 2.5 0.9 6.7 1.6 9.5 1.6 2.7 0 7-0.7 9.5-1.6 2.5-0.9 6-3.4 7.9-5.5 1.9-2.1 4.5-6.1 5.7-8.8 1.3-2.8 3.9-11.1 5.9-18.5 2-7.4 4.2-14.5 5-15.8 0.8-1.2 2.5-2.5 3.7-2.8 1.3-0.3 3.3-0.1 4.5 0.5 1.3 0.6 3 2.6 3.9 4.3 1.4 2.7 1.6 5.3 1.2 13.8-0.4 7.7-1.2 12.4-3.1 17.5-1.3 3.8-2.7 7.7-3.1 8.5-0.5 1.1 1.6 2.6 8.1 5.8 4.9 2.4 9.1 3.9 9.4 3.5 0.3-0.4 1.8-3.7 3.2-7.3 1.4-3.6 3-9.2 3.6-12.5 0.6-3.3 1.1-11.2 1.1-17.5 0.1-7.3-0.5-13.3-1.4-16.5-0.8-2.8-3-7.2-4.8-10-1.9-2.9-5.3-6.2-8.2-8-4.2-2.5-6.2-3.1-12.5-3.3-6.6-0.3-8.3 0-12.8 2.3z"/>
		<path id="Path 22" class="s0" d="m937.9 1199.8c-6.6 13.6-12.1 25.3-12.2 26-0.1 0.7 19.1 10.5 48.6 24.7 26.8 12.9 49 23.5 49.5 23.5 0.4-0.1 6.1-11.4 12.7-25.2 6.6-13.8 12-25.5 12-26 0-0.5-21.8-11.4-48.5-24.3-26.7-12.9-48.9-23.5-49.3-23.5-0.4 0-6.2 11.1-12.8 24.8z"/>
		<path id="Path 23" fill-rule="evenodd" class="s0" d="m5960 1143v68l2.3-0.6c1.2-0.3 4.2-1.8 6.6-3.2 3-1.8 5.4-4.5 7.5-8.2 2.8-5 3.1-6.3 3.1-14 0-7-0.4-9.3-2.4-13-1.3-2.5-3.6-5.8-8.1-10.5l6-7.3c3.3-3.9 6.4-7.2 7-7.2 0.6 0 3.1 2.4 5.6 5.2 2.6 2.9 5.7 7.3 6.9 9.8 1.3 2.5 3 7.2 3.9 10.5 0.9 3.3 1.6 10 1.6 15 0 6.2-0.6 11.1-2 15.7-1.3 4.5-3.6 9-6.8 13-2.7 3.6-7.3 8-10.7 10.3-3.3 2.2-8.7 4.9-12 6-4.5 1.5-8.6 2-16 1.9-7.2-0.1-11.5-0.7-15.5-2.1-3-1.1-8.2-3.7-11.4-5.9-3.3-2.1-7.4-5.7-9.2-7.9-1.8-2.2-4.7-7.2-6.5-11-2.8-6.1-3.3-8.3-3.7-17-0.4-7.5 0-11.5 1.2-16 1-3.3 3.2-8.2 4.9-10.9 1.8-2.7 5.2-6.7 7.7-8.8 2.5-2.2 7-5.1 10-6.5 3-1.4 8.6-3.2 12.5-3.9 3.9-0.6 9.4-1.3 17.5-1.4zm-28.9 28.3c-1.3 1.2-3.2 4-4.2 6.2-1.1 2.4-1.9 6.3-1.9 9.8 0 3.1 0.7 7.4 1.6 9.4 0.8 2.1 2.7 5.1 4.2 6.6 1.5 1.6 4.3 3.7 6.2 4.7 1.9 0.9 4.5 2 5.7 2.4l2.3 0.6c0-43.3-0.1-45-1.8-45-0.9 0.1-3.5 0.7-5.7 1.5-2.2 0.8-5.1 2.5-6.4 3.8z"/>
		<path id="Path 24" class="s0" d="m5906.3 1069.8c-0.3 0.9-0.4 4.6-0.1 8.2 0.3 3.6 1.5 8.5 2.6 11 1.2 2.5 3.9 6.6 6.2 9.3l4 4.7h-12l0.5 23.5 91.5 0.5v-24c-40.4 0-48.8-0.4-52-1.3-2.5-0.7-6-2.3-7.8-3.5-1.7-1.2-4.2-4.1-5.5-6.4-1.8-3.6-2.2-5.9-2.2-14v-9.8c-23.1 0-24.6 0.2-25.2 1.8z"/>
		<path id="Path 25" class="s0" d="m4384 1094v26h87v228h55v-228h86v-52h-228z"/>
		<path id="Path 26" class="s0" d="m4285 1208v140h55v-280h-55z"/>
		<path id="Path 27" class="s0" d="m4010.5 1068.7c-0.5 0.3-0.8 63.3-0.7 140l0.2 139.3h55v-228c60.6 0 75.9 0.4 79.3 1.1 2.8 0.6 7 2.1 9.2 3.2 2.2 1.1 6.2 4.1 8.9 6.6 2.9 2.7 6.1 7.1 7.7 10.6 1.6 3.3 3.4 9.2 4 13 0.6 3.8 0.9 10.2 0.6 14-0.3 3.8-1.3 9.2-2.1 12-0.8 2.7-3 7.2-4.8 9.9-1.8 2.7-5.5 6.5-8.3 8.5-2.7 1.9-8.1 4.7-12 6.1-6.9 2.4-7.7 2.5-43.3 3-19.9 0.3-36.3 0.9-36.5 1.4-0.1 0.5 24.6 31.8 54.8 69.7l55 68.8c67.5 0.2 68.9 0.1 67.4-1.6-0.9-1-14.8-18.2-30.9-38.3-16.2-20.1-33.8-42-39.2-48.8l-9.8-12.2c12.8-5.9 20.1-10.1 24.5-13 4.4-3 11.1-8.6 14.9-12.5 3.7-3.8 8.8-9.9 11.1-13.5 2.4-3.6 5.5-9.1 6.9-12.3 1.4-3.1 3.6-9.2 4.8-13.5 1.9-6.5 2.3-10 2.2-22.2-0.1-12.8-0.4-15.5-2.8-23.5-1.5-5-4.7-12.8-7.2-17.5-2.4-4.7-6.8-11.4-9.7-15-2.9-3.6-8.4-9.1-12.3-12.3-3.8-3.2-9.8-7.5-13.4-9.6-3.6-2.1-9.4-5-13-6.4-3.6-1.4-9.2-3.3-12.5-4.1-3.3-0.9-9.6-2.1-14-2.6-4.5-0.6-35-1-70.6-1-34.4 0-62.9 0.3-63.4 0.7z"/>
		<path id="Path 28" class="s0" d="m3764 1208v140h201v-51l-145.5-0.5-0.5-62.5 118.5-0.5 0.5-50.5-118.5-0.5-0.5-62.5h146v-52h-201z"/>
		<path id="Path 29" class="s0" d="m3301 1208v140h55l-0.5-279.5-54.5-0.5z"/>
		<path id="Path 30" class="s0" d="m3057 1208v140h201v-51h-146l-0.5-228.5-54.5-0.5z"/>
		<path id="Path 31" class="s0" d="m2814.5 1068.7c-0.5 0.3-0.8 63.3-0.7 140l0.2 139.3h202v-51h-146l-0.5-228.5c-42-0.4-54.5-0.2-55 0.2z"/>
		<path id="Path 32" class="s0" d="m2697 1208v140h55l-0.5-279.5-54.5-0.5z"/>
		<path id="Path 33" class="s0" d="m2568.1 1099.3c-13.2 17.1-37.3 48.5-53.5 69.7-16.3 21.2-29.5 39-29.4 39.5 0.2 0.6 25.3 32.2 55.8 70.3l55.5 69.2c52.3 0 67.5-0.2 67.5-0.5 0-0.3-24.6-31-54.6-68.2-30.1-37.3-55.3-68.5-56.1-69.3-1.2-1.3 5.6-10.5 52.2-70.7 29.4-38.1 53.5-69.8 53.5-70.3 0-0.6-11.8-1-33.5-1h-33.4z"/>
		<path id="Path 34" class="s0" d="m2429 1208v140h55v-280h-55z"/>
		<path id="Path 35" fill-rule="evenodd" class="s0" d="m2278.2 1068.5l56.4 138c31 75.9 56.6 138.8 56.9 139.8 0.5 1.6-1.4 1.7-59 1.7l-8.9-23.7c-4.9-13.1-10.2-27.3-14.6-39.3h-116.5l-24 63.1-59.5-0.1 1.9-4.8c1-2.6 17.1-41.8 35.6-87.2 18.5-45.4 43.2-105.7 54.7-134 11.6-28.3 21.3-52.1 21.5-52.8 0.4-1 6.5-1.2 55.5-0.7zm-47.4 114c-9.9 26.4-18.2 48.8-18.4 49.7-0.4 1.7 2 1.8 38.1 1.8 25 0 38.5-0.4 38.5-1 0-0.5-8.4-23.4-18.6-50.8-10.3-27.3-18.9-50.1-19.3-50.5-0.3-0.4-1 0-1.4 1-0.5 1-9 23.4-18.9 49.8z"/>
		<path id="Path 36" class="s0" d="m3605 1066.7c-3 0.3-10.4 1.2-16.5 2-6 0.8-15.9 3-22 5-6.1 1.9-13.7 4.9-17 6.6-3.3 1.6-8.5 4.7-11.5 6.7-3 2.1-7.9 6.2-10.9 9.1-3 3-6.8 7.6-8.6 10.4-1.8 2.7-4.4 7.7-5.8 11-1.4 3.3-3.3 9.8-4.3 14.5-1.3 6.5-1.5 11.2-1.1 20 0.3 6.3 1.3 14.2 2.2 17.5 0.8 3.3 3.3 9.6 5.4 14 2.3 4.7 6.4 10.7 9.8 14.4 3.2 3.5 8.5 8.3 11.8 10.6 3.3 2.4 9.2 5.8 13 7.8 3.8 1.9 11.7 5.1 17.5 7.1 5.8 1.9 18.2 5.3 27.5 7.5 9.3 2.2 21.6 5.4 27.2 7 5.7 1.7 14.2 4.8 19 6.9 4.9 2 11 5.3 13.8 7.3 3 2.2 5.9 5.3 7.2 8q2.3 4.4 2.3 9.9c0 3.8-0.7 6.8-2.2 9.9-1.3 2.4-3.9 5.6-5.8 7.2-1.9 1.6-6.7 4-10.5 5.3-3.8 1.3-10.4 3-14.5 3.7-5.4 1-16 1.4-37.5 1.3-20.4 0-35-0.6-45.5-1.7-8.5-0.9-20.7-2.6-27-3.7-6.3-1.1-12.5-2.2-13.8-2.5l-2.2-0.5c0 39.5 0.3 51.2 0.7 51.5 0.5 0.2 6.2 1.5 12.8 2.9 6.6 1.4 20.3 3.4 30.5 4.5 10.2 1.1 25.9 2.3 35 2.7 10.2 0.4 21.5 0.2 29.5-0.5 7.2-0.7 16.8-1.8 21.5-2.6 4.7-0.8 13-2.8 18.5-4.4 5.5-1.6 13.2-4.4 17-6.1 3.8-1.7 9.9-5.1 13.5-7.5 3.6-2.4 8.9-6.7 11.9-9.7 3-2.9 7.5-8.5 10-12.3 2.4-3.8 5.5-9.9 6.7-13.5 1.2-3.6 2.8-9.7 3.5-13.5 0.7-4.3 1-11.3 0.6-18-0.3-6.1-1.3-13.7-2.2-17-0.9-3.3-2.9-8.7-4.5-12-1.7-3.3-5.3-8.7-8.2-11.9-2.9-3.2-8-7.8-11.3-10.1-3.3-2.4-9.2-5.8-13-7.8-3.8-1.9-12.4-5.3-19-7.5-6.6-2.3-18.3-5.7-26-7.7-7.7-2-21-5.7-29.5-8.1-8.5-2.5-19.6-6.5-24.5-8.8-6.4-3.1-10.1-5.6-12.8-8.7-2.1-2.4-4.3-6.2-4.8-8.4-0.6-2.2-0.9-6.7-0.8-10.1 0.3-4.5 1.1-7.1 3.1-10.2 1.6-2.3 4.7-5.4 7-7 2.5-1.5 8.6-3.8 14.3-5.2 9.4-2.4 11.5-2.5 36.5-2.5 14.6 0.1 32.1 0.7 39 1.4 6.9 0.7 16.9 1.9 22.2 2.7 5.4 0.8 11.9 1.9 14.5 2.4 2.7 0.6 5.6 1.3 6.5 1.5 1.7 0.5 1.8-1.2 1.8-25.5v-26c-5.8-1.5-10.9-2.6-15-3.5-4.1-0.9-14.9-2.5-24-3.6-9.2-1.1-25.1-2.1-36-2.3-10.7-0.2-22-0.2-25 0.1z"/>
		<path id="Path 37" class="s0" d="m5907.2 1040.8l0.3 11.7 91.5 0.5v-24h-92.1z"/>
		<path id="Path 38" class="s0" d="m5876.3 1030c-1.8 1.1-4 3.3-4.8 5-0.8 1.7-1.5 4.5-1.5 6.3 0 1.7 0.9 4.7 2 6.5 1.1 1.7 3 3.9 4.2 4.7 1.3 0.9 4.3 1.6 6.8 1.7 2.5 0.1 6-0.6 7.7-1.5 1.8-1 4-3.2 4.9-5 0.9-1.7 1.7-4.8 1.7-6.7 0-1.9-0.7-4.8-1.7-6.5-0.9-1.7-3-3.8-4.6-4.8-1.7-0.9-4.9-1.7-7.3-1.7-2.4 0-5.5 0.8-7.5 2z"/>
		<path id="Path 39" class="s0" d="m4298 985.3c-3.6 1.8-7.8 4.9-9.7 7.2-1.8 2.2-4.1 6.3-5 9-1.1 3.5-1.4 7.2-1.1 12.5 0.3 5.4 1.2 8.9 3 12.5 1.5 2.8 4.1 6.4 6 8.2 1.8 1.8 5.5 4.2 8.3 5.5 3.9 1.7 6.8 2.2 13 2.2 5.9 0 9.2-0.5 12.5-2 2.5-1.1 6.2-3.6 8.3-5.5 2.1-1.9 5.1-5.9 6.5-8.9 2.1-4.5 2.6-7 2.6-13.5 0-7-0.4-8.9-3.2-14.7-1.9-4-4.5-7.8-6.5-9.3-1.7-1.3-5.6-3.4-8.5-4.5-3.5-1.3-7.6-2-12.5-2-6.2 0-8.2 0.5-13.7 3.3z"/>
		<path id="Path 40" class="s0" d="m5907 964.5v12.5h-35v24h35v13h20v-13c54.4-0.5 54.6-0.5 59.5-3.1 2.8-1.4 6.5-4.4 8.3-6.7 1.7-2.3 3.7-6.1 4.3-8.4 0.6-2.4 1-7.9 1-12.3-0.1-4.4-0.7-10.2-1.4-13l-1.3-5h-17.7c0.3 12.9-0.2 17-0.9 18.5-0.8 1.4-2.9 3.3-4.8 4.2-3 1.6-6.5 1.8-25.3 1.8h-21.7v-25h-20z"/>
		<path id="Path 41" class="s0" d="m5980 915.8c-1.9 0.9-4 2.6-4.8 3.7-0.7 1.1-1.5 4-1.8 6.5-0.4 3.3 0 5.4 1.4 8 1.1 1.9 3.5 4.3 5.3 5.3 1.9 0.9 5 1.7 6.9 1.7 1.9 0 5-0.9 6.8-2 1.7-1.1 4-3.2 4.9-4.7 1-1.6 1.7-4.7 1.8-7 0-2.7-0.7-5.2-2.1-7-1.1-1.5-3.6-3.6-5.5-4.5-1.9-1-4.8-1.8-6.4-1.8-1.6 0-4.6 0.8-6.5 1.8z"/>
		<path id="Path 42" class="s0" d="m1015.8 912.8c-0.9 2-8.9 18.8-17.8 37.2-8.8 18.4-15.7 33.8-15.3 34.1 0.4 0.3 14.3 7 30.8 14.9 16.5 7.9 60.4 28.9 97.5 46.7 37.1 17.8 67.5 32.2 67.5 32.1 0.1-0.2 8.1-17 17.8-37.3 9.8-20.3 17.4-37.3 17-37.7-0.5-0.3-44.5-21.6-97.8-47.2-53.3-25.6-97.3-46.6-97.6-46.6-0.3 0-1.3 1.7-2.1 3.8z"/>
		<path id="Path 43" class="s0" d="m1179.5 883.3c-9.7 20.4-17.3 37.5-16.8 37.9 0.4 0.3 23.1 11.3 50.3 24.2 45 21.5 49.9 24.1 54 28.4 2.5 2.6 5.1 6.5 5.7 8.7 0.7 2.2 1.3 6 1.3 8.5 0 2.5-0.6 6.3-1.4 8.5-0.8 2.2-14.5 31.2-30.5 64.5-16 33.3-30.2 62.1-31.5 64-1.2 1.9-4.7 4.8-7.7 6.5-4.7 2.6-6.4 3-12.9 2.9h-7.5c-77.5-37.6-100.3-48.6-100.8-48.7-0.4-0.1-8.7 16.5-18.6 36.8-9.8 20.3-17.5 37.3-17.2 37.7 0.3 0.4 34.8 17.1 76.6 37.2 41.8 20 78.7 37.2 82 38.1 3.5 1 9.4 1.7 14 1.7 5.6 0 10-0.6 14.5-2.2 3.6-1.2 9.4-4 12.9-6.3 3.5-2.3 8.1-6.2 10.1-8.7 2.1-2.5 5.9-8.8 8.5-14 2.6-5.2 27.5-56.7 55.3-114.5 27.8-57.7 51.8-108.4 53.5-112.5 2.7-6.6 3.1-8.7 3.1-17.5 0.1-7.2-0.4-11.5-1.8-15.5-1-3-3.1-7.7-4.6-10.5-1.6-2.7-5.8-7.8-9.4-11.2-5.3-5.1-9.2-7.6-20.3-12.9-7.6-3.6-42.7-20.5-78-37.5-35.4-17-64.5-30.9-64.7-30.9-0.2 0-8.3 16.8-18.1 37.3z"/>
		<path id="Path 44" class="s0" d="m5921.1 817.8c-1.3 0.9-4.4 4.4-6.8 7.7-2.8 3.8-5.2 8.6-6.5 13-1.7 5.6-2 8.8-1.6 16 0.3 5.7 1.3 11.2 2.7 15 1.2 3.3 3.9 8.5 6 11.5 2 3 6.4 7.7 9.7 10.3 3.2 2.6 8.4 5.7 11.4 6.8 3 1.2 8.2 2.5 11.5 2.9 3.3 0.4 8.9 0.3 12.5-0.2 3.6-0.5 9.2-2.2 12.5-3.8 3.3-1.5 8.2-4.8 10.9-7.2 2.7-2.4 6.7-7 8.8-10.3 2.2-3.3 4.8-8.9 5.9-12.5 1.3-4.3 2-9.4 2-15 0-6.3-0.5-10-2.2-14.5-1.2-3.3-3.4-7.8-5-10-1.5-2.2-4.4-5.8-6.6-7.9l-3.8-4-14.2 14.9c6.3 7.1 8.8 10.9 9.4 13.1 0.7 2.1 1.3 5.8 1.3 8.2 0 2.3-0.9 6.6-2 9.5-1.1 2.9-3.6 6.8-5.7 8.9-2.1 2-5.8 4.6-8.3 5.7-2.8 1.3-6.6 2.1-10 2.1q-5.5 0-10.5-2.3c-2.8-1.3-6.7-4.3-8.8-6.8-2.1-2.4-4.5-6.6-5.4-9.4-1-3.2-1.4-6.8-1.1-10 0.3-2.7 1.5-6.8 2.6-9 1.1-2.2 3.4-5.3 5.1-7l3-3c-10.4-11.3-13.6-14.5-13.9-14.5-0.3 0.1-1.6 0.9-2.9 1.8z"/>
		<path id="Path 45" class="s0" d="m5187 812.5v17.5h36v-35h-36z"/>
		<path id="Path 46" class="s0" d="m3221.6 793.8c-0.2 0.4 7 28.4 16 62.2 9.1 33.8 16.8 61.8 17.2 62.3 0.4 0.4 5.4 0.6 11.2 0.5l10.5-0.3c13.5-57.3 17.7-75.1 18-76.5 0.4-1.5 0.9-2.1 1.4-1.5 0.5 0.6 3.9 13.6 7.7 29 3.7 15.4 7.9 32.7 9.3 38.5l2.6 10.5h21.7c25.4-93.8 32.7-122 32.8-123.2 0-2.3-0.1-2.3-12.2-2l-12.3 0.2c-14 56.6-18.4 73.9-18.9 75l-0.8 2c-1.4-3.1-5.6-20.2-10.4-40-4.7-19.8-8.8-36.3-9-36.7-0.2-0.5-5-0.8-10.6-0.8h-10.3c-6 24.4-10.2 41.7-13.1 54.3-3 12.5-5.8 22.7-6.4 22.7-0.6 0-1-0.7-1-1.5 0-0.8-4.1-17.4-9-36.7-5-19.4-9.3-36.1-9.5-37-0.4-1.6-1.9-1.8-12.5-1.8-6.5 0-12.1 0.3-12.4 0.8z"/>
		<path id="Path 47" class="s0" d="m2929 804.5v11.5h36v80h-36v23h100v-23h-36v-103h-64z"/>
		<path id="Path 48" class="s0" d="m3921.5 790.9c-2.8 0.5-7.3 1.5-10 2.3-2.8 0.9-7 2.5-9.5 3.8-2.5 1.2-6.4 3.8-8.8 5.6-2.6 2.1-5.2 5.6-6.9 9.2-2.3 4.6-2.8 7.1-2.8 13.2 0 6.1 0.5 8.6 2.7 13 1.4 3 4.6 7.3 7 9.5 2.5 2.2 7.6 5.7 11.4 7.7 3.8 2 12.7 5.9 19.9 8.6 7.2 2.8 15.7 6.2 19 7.7 3.3 1.5 7.1 3.6 8.5 4.7 1.4 1.1 3 2.9 3.7 4.1 0.7 1.2 1.2 3.9 1.3 6 0 2.7-0.7 4.5-2.7 6.6-1.6 1.6-5.1 3.5-8.3 4.5-3 0.9-8 1.6-11 1.6-3 0-8.1-0.7-11.2-1.5-3.2-0.8-7.7-2.5-10-3.6-2.4-1.2-6.7-3.9-9.5-6l-5.3-3.9c-13.2 11.2-17 15.1-17 15.8 0 0.6 2.6 3.3 5.8 5.8 3.1 2.6 7.7 5.8 10.2 7.2 2.5 1.5 7.4 3.6 11 4.8 3.6 1.2 10.6 2.7 15.5 3.3 6.2 0.7 11.8 0.8 18 0.1 4.9-0.6 11.3-1.8 14-2.6 2.8-0.9 7.3-2.9 10-4.4 2.8-1.5 6.9-5 9.3-7.6 2.3-2.7 4.9-6.9 5.7-9.4 0.9-2.5 1.5-7.9 1.5-12 0-4.4-0.7-9.6-1.7-12.5-1.1-3.5-3.4-6.7-7.2-10.5-3.1-3.1-8.3-7-11.6-8.7-3.3-1.8-13.9-6.2-23.5-9.8-9.6-3.6-19.4-7.7-21.8-9-2.3-1.4-4.9-3.5-5.7-4.7-0.8-1.3-1.5-3.6-1.5-5.3-0.1-1.6 0.8-4.2 2-5.7 1.3-1.8 3.9-3.4 7.3-4.4 3.9-1.3 7.6-1.6 14.7-1.2 7.6 0.4 10.7 1 15.5 3.2 3.3 1.5 7.5 3.8 9.3 5.2 1.7 1.3 3.8 2.2 4.5 2 0.6-0.2 4.7-3.1 9-6.5 4.2-3.3 7.7-6.6 7.7-7.1 0-0.5-1.7-2.6-3.7-4.5-2.1-1.9-7.4-5.3-11.8-7.5-4.4-2.2-10.5-4.7-13.5-5.5-3-0.8-9.8-1.7-15-1.9-5.2-0.3-11.7-0.1-14.5 0.3z"/>
		<path id="Path 49" class="s0" d="m3636.5 791.4c-3.8 0.8-9.5 2.4-12.5 3.6-3 1.2-7.9 3.8-10.9 5.8-3 2.1-6.5 5.2-7.8 7-1.3 1.7-2.7 3-3.3 2.7-0.6-0.3-1-4.3-1-9v-8.5h-53v23h28l-0.5 79.5-27.5 0.5v23l92.5-0.5 0.5-22.5h-38c0-38 0.5-51.1 1-53.7 0.6-2.7 2.5-7.2 4.3-10.2 2-3.4 5.1-6.7 8.2-8.8 2.8-1.9 7.5-4.3 10.5-5.4 3.3-1.3 9.4-2.4 15.3-2.7l9.7-0.7v27.5h27v-45c-5.8-2.5-9.8-3.9-12.5-4.6-2.7-0.7-9.1-1.6-14-1.8-5.6-0.3-11.7 0-16 0.8z"/>
		<path id="Path 50" fill-rule="evenodd" class="s0" d="m3459.5 790.7c4.9 0.3 11.5 1.1 14.5 1.9 3 0.8 8.9 3.1 13 5.1 4.7 2.3 9.6 5.8 13.1 9.3 3 3 7.2 8.4 9.1 12 2 3.6 4.7 9.9 6 14 2 6.6 2.3 9.5 2.2 23.5 0 14.6-0.2 16.7-2.7 24-1.4 4.4-4.3 10.7-6.5 14-2.1 3.3-5.6 7.8-7.8 9.9-2.1 2.1-6.6 5.6-9.9 7.8-3.3 2.1-8.7 4.7-12 5.8-3.3 1.1-10.1 2.4-15 2.9-5.6 0.6-12.2 0.6-17.5 0-4.7-0.5-10.3-1.4-12.5-2-2.2-0.6-6.7-2.5-10-4.2-3.3-1.8-9.2-6.3-13.1-10.2-5.1-5.1-8-9.1-10.7-14.5-2-4.1-4.3-10.4-5.1-14-0.8-3.6-1.7-9.9-2.1-14-0.3-4.1-0.1-11.3 0.5-16 0.6-4.7 2-11.4 3.1-15 1.1-3.6 3.5-9 5.2-12 1.7-3 5.9-8.2 9.2-11.5 3.5-3.5 8.9-7.5 13-9.6 3.8-2 8.6-4.2 10.5-4.8 1.9-0.6 6.4-1.5 10-2 3.6-0.5 10.6-0.7 15.5-0.4zm-28 32.7c-2.3 2.3-5.3 6.6-6.7 9.6-1.4 3-3.2 8.4-3.9 12-0.7 3.8-1 10-0.7 15 0.3 4.7 1.4 11 2.5 14 1.1 3 3.4 7.6 5.1 10.2 1.8 2.7 5.1 6 7.5 7.5 2.3 1.4 6.5 3.2 9.2 4 2.8 0.7 7.7 1.3 11 1.3 3.3 0 8.3-0.6 11-1.4 2.8-0.8 6.9-2.9 9.3-4.5 2.3-1.7 5.5-5 7-7.4 1.6-2.3 3.7-6.2 4.6-8.7 0.9-2.5 2-7.9 2.4-12 0.5-4.1 0.5-10.7 0-14.5-0.4-3.9-1.7-9.7-3-13-1.6-4.3-3.8-7.6-7.7-11.6-3.9-3.8-7.1-6.1-10.6-7.2-3.2-1.1-8-1.7-13.5-1.7-6.2 0.1-10 0.7-14 2.2-3.1 1.3-7.2 3.9-9.5 6.2z"/>
		<path id="Path 51" class="s0" d="m3134 791.2c-3 0.5-8.2 2.1-11.5 3.6-3.3 1.5-7.9 4.2-10.3 5.9-2.3 1.8-4.4 3-4.7 2.5-0.3-0.4-0.5-2.8-0.5-5.5v-4.7h-27l0.5 125.5 26.5 0.5c0.6-81.1 0.6-82.7 2.8-88.3 1.5-4 3.5-6.7 6.5-9.2 2.3-2 6.5-4.3 9.2-5.2 3.6-1.1 7.4-1.5 13.5-1.2 6.8 0.4 9.4 1 13 3.1 2.5 1.4 6 4.2 7.8 6.2 1.7 2 3.7 5.3 4.4 7.3 0.8 2.6 1.4 17.4 1.7 45.3l0.6 41.5 26.5 0.5c0-76.9-0.3-86.9-1.5-92.5-0.9-3.9-2.7-9.4-4-12.3-1.4-2.8-4.6-7.5-7.2-10.3-2.8-2.9-7.3-6.3-10.8-8-3.3-1.6-9.2-3.6-13-4.4-3.8-0.8-9.2-1.4-12-1.4-2.7 0.1-7.5 0.5-10.5 1.1z"/>
		<path id="Path 52" fill-rule="evenodd" class="s0" d="m2819.5 790.1c2.8 0 9.1 0.5 14 1.2 5.5 0.8 11.5 2.5 15.5 4.3 3.6 1.7 8.5 4.8 10.8 7 2.5 2.2 5.7 6.6 7.3 9.9 1.5 3.3 3.3 8.9 3.9 12.5 0.7 4.1 1 22.5 0.5 93.5l-25.5 0.5v-4.5c0-2.5-0.4-4.5-1-4.5-0.6 0-2.2 0.8-3.8 1.9-1.5 1-5 3-7.7 4.3-2.8 1.4-7.5 3.1-10.5 3.9-3 0.7-10 1.3-15.5 1.2-6 0-12.6-0.7-16.5-1.8-3.6-0.9-8.7-2.9-11.4-4.3-2.6-1.5-6.8-4.8-9.2-7.5-2.4-2.6-5.6-7.3-7.2-10.5-2.5-5.2-2.7-6.7-2.7-17.2 0-9.9 0.3-12.2 2.2-16.3 1.3-2.6 4.5-7.1 7.2-10 2.9-3.1 7.4-6.5 11.2-8.4 3.5-1.8 9.1-3.9 12.4-4.8 3.3-0.9 10.3-1.9 15.5-2.2 7-0.4 11.8-0.1 18 1.2 4.7 0.9 10.6 2.5 13.3 3.6 3.6 1.5 4.8 1.6 5.3 0.6 0.4-0.6 0.3-4.3-0.1-8.2-0.4-3.9-1.5-8.8-2.4-10.9-0.9-2.2-2.8-5-4.4-6.3-1.5-1.2-5.1-3-8-3.8-2.8-0.8-8.2-1.5-12-1.5-3.7 0-10 0.7-14 1.6-3.9 1-10.1 2.9-13.7 4.4-3.6 1.4-7.6 3.4-9 4.3-1.4 1-3.2 1.7-4 1.7-1 0-2.7-3.3-4.9-9.3-1.9-5-3.6-9.7-3.8-10.2-0.2-0.5 3.1-2.6 7.4-4.6 4.3-2 11-4.7 14.8-5.9 3.8-1.2 10.6-2.8 15-3.5 4.4-0.7 10.2-1.3 13-1.4zm-24.4 74.9c-2.4 1.4-5.3 3.6-6.3 5-1.1 1.4-2.2 4.5-2.5 7-0.3 2.5-0.3 5.7 0.1 7.2 0.3 1.6 2.1 4.5 3.8 6.5 1.8 2 5.1 4.4 7.3 5.4 2.2 1 6.9 2.2 10.5 2.5 3.9 0.4 9.1 0.2 13-0.5 3.6-0.7 9-2.6 12-4.2 3-1.6 7.2-4.2 9.2-5.9l3.8-3v-18c-5.4-2.3-9.6-3.7-12.8-4.5-3.1-0.9-9.5-1.8-14.2-2-4.9-0.3-10.8 0.1-14 0.8-3 0.7-7.5 2.4-9.9 3.7z"/>
		<path id="Path 53" class="s0" d="m2680.5 791.4c-3.8 0.7-9.5 2.4-12.5 3.6-3 1.3-7.8 3.8-10.5 5.5-2.8 1.7-6.2 4.6-7.8 6.3-1.5 1.8-3.1 3.2-3.7 3.2-0.6 0-1-3.5-1-8.5v-8.5h-53v23h28l-0.5 79.5-27.5 0.5v23l92.5-0.5 0.5-22.5-37.5-0.5v-54c5.8-12 7.7-14.4 11.8-17.4 2.8-2.1 7.9-4.8 11.2-6.1 3.8-1.4 9.6-2.4 15.8-2.8l9.7-0.7v27.5h27v-45c-6.6-2.9-10.9-4.2-13.8-4.9-2.8-0.6-8.9-1.3-13.4-1.6-4.9-0.3-11.2 0.1-15.3 0.9z"/>
		<path id="Path 54" class="s0" d="m966 748.1c-4.1 1.1-9.7 3.2-12.5 4.7-2.7 1.5-7.5 5.2-10.6 8.2-4.4 4.3-7 8.2-12.1 18.5-3.6 7.1-14.9 30.3-25.1 51.5-10.2 21.2-32.3 67.1-49.2 102-16.9 34.9-32 66.9-33.5 71-1.5 4.1-3.1 10.6-3.5 14.5-0.4 4.8-0.2 9.2 0.8 14 0.8 3.8 2.8 9.7 4.5 13 1.6 3.3 4.9 8.2 7.3 10.9 2.4 2.7 6.4 6.3 8.9 8 2.5 1.6 38.9 19.5 81 39.7l76.5 36.7c7.8-15.8 15.7-32.3 22.7-46.8 7-14.6 12.8-27.1 12.8-27.8 0-0.6-1.1-1.5-2.4-2-1.3-0.4-23.9-11-50.2-23.7-41.9-20.1-48.4-23.6-52.2-27.5-2.7-2.8-4.9-6.4-5.9-9.5-0.9-2.9-1.4-7.1-1.1-10 0.3-4 6.3-17.3 30.8-68.5 25.8-53.7 31.2-64.2 35-68.3 3.1-3.3 6-5.3 9.5-6.4 3.2-1 6.9-1.4 10.5-1.1 4.6 0.4 13.8 4.5 55.8 24.7 27.6 13.2 50.5 24.1 51 24.1 0.4 0 8.7-16.8 18.5-37.3 9.7-20.4 17.6-37.3 17.5-37.4-0.2 0-22.8-10.9-50.3-24.1-27.5-13.2-61.9-29.7-76.5-36.7-16.3-7.8-29.4-13.5-34-14.6-4.1-1.1-9.5-1.9-12-1.9-2.5 0.1-7.9 1-12 2.1z"/>
		<path id="Path 55" class="s0" d="m3730 748.4l-11.5 5.3v164.8c22.6 0.4 26.2 0.2 26.7-0.7 0.4-0.7 0.8-12.8 0.9-26.8l0.1-25.5c14.4-13.2 19-17.1 19.5-17.3 0.4-0.2 9 14.7 18.9 33 10 18.3 18.7 34.3 19.3 35.6 1.1 2.1 1.6 2.2 15.6 2.2 10.9 0 14.5-0.3 14.5-1.2 0-0.7-10.6-20.8-23.5-44.5-12.9-23.8-23.4-43.9-23.3-44.6 0.2-0.8 8.3-8.7 18-17.8 9.7-9 17.5-16.7 17.3-17.1-0.3-0.5-7.1-0.8-15.2-0.8l-14.8-0.1-46 43.8c-0.8-72.2-1.2-93.3-1.3-93.4-0.1-0.2-1-0.3-1.9-0.2-1 0-7 2.4-13.3 5.3z"/>
		<path id="Path 56" class="s0" d="m2971 745.3c-2 1.3-4.5 3.6-5.8 5.3-1.6 2.1-2.2 4.3-2.2 7.9 0.1 3.1 0.8 6.2 1.9 8 1 1.7 3.8 4 6.2 5.2 2.4 1.3 6.1 2.3 8.2 2.3 2 0 5.5-0.9 7.7-2 2.2-1.1 4.9-3.5 6-5.2 1-1.8 2.2-4.9 2.5-6.8 0.4-2.5 0-4.7-1.7-8-1.5-3-3.7-5.3-6.3-6.7-2.5-1.4-5.7-2.3-8.5-2.3-3 0-5.7 0.8-8 2.3z"/>
		<path id="Path 57" fill-rule="evenodd" class="s0" d="m2469.5 742.4c0.6 0.2 1.1 11.4 1.5 60.6l4.3-3.3c2.3-1.8 6.8-4.3 9.9-5.5 3.2-1.2 8.8-2.7 12.6-3.3 5-0.9 8.7-0.9 14.7 0 4.4 0.6 10 1.9 12.5 2.8 2.5 0.9 6.8 3.1 9.5 4.8 2.8 1.8 6.8 5 8.9 7.1 2.2 2.1 5.7 6.6 7.8 9.9 2.1 3.3 4.7 8.7 5.8 12 1.1 3.3 2.5 8.5 3 11.5 0.6 3 1.1 10.9 1.1 17.5 0 7.4-0.6 15.1-1.6 20-0.9 4.4-3.1 11.1-4.9 15-1.8 3.9-5.1 9.3-7.2 12-2.2 2.8-6.7 6.8-10 9-3.2 2.1-8 4.7-10.6 5.7-2.7 1-8.5 2.2-13 2.7-4.6 0.5-11.9 0.6-16.3 0.1-5.9-0.5-9.7-1.6-14.5-4-3.6-1.7-7.7-4.4-12-8.5l-0.5 10h-27v-164.9l12.5-5.7c6.9-3.1 12.9-5.6 13.5-5.5zm9.5 78.8c-0.8 0.7-3 2.6-4.8 4.2l-3.2 3.1v55.5c5.8 5.5 9.3 8 11.5 9 2.2 1.1 6.5 2.4 9.5 3 3 0.6 7.5 1 10 1 2.5 0 6.8-0.6 9.5-1.4 2.8-0.8 7-2.9 9.4-4.8 2.7-2 5.5-5.5 7.3-8.8 1.5-3 3.5-8.6 4.3-12.5 0.8-3.8 1.5-10 1.5-13.7 0-3.8-0.7-9.9-1.5-13.8-0.8-3.8-2.4-8.8-3.5-11-1.1-2.2-3.3-5.5-4.9-7.2-1.6-1.8-5-4.4-7.7-5.8-4-2.1-6.6-2.5-14.4-2.8-8.3-0.2-10.2 0.1-15.5 2.3-3.3 1.4-6.7 3.1-7.5 3.7z"/>
		<path id="Path 58" fill-rule="evenodd" class="s0" d="m2235 707.1c2.5-0.1 9.2 0.4 15 0.9 5.8 0.6 14.6 2 19.5 3.2 4.9 1.2 12.8 3.7 17.5 5.6 4.7 1.9 10.8 4.5 13.5 5.9 2.8 1.4 9.3 5.5 14.5 9.1 5.2 3.6 13.4 10.4 18.1 15.2 4.7 4.7 10.7 11.4 13.3 15 2.7 3.6 6.6 9.6 8.9 13.5 2.2 3.9 5.8 11 7.8 16 2.1 5 4.9 13.7 6.3 19.5 1.4 5.8 3 15.2 3.5 21 0.5 6.1 0.5 14.9 0 21-0.5 5.8-1.4 13-2 16-0.6 3-2 8.6-3.1 12.5-1.1 3.9-3.6 10.6-5.5 15-1.8 4.4-5.2 11.1-7.5 15-2.3 3.9-6.9 10.6-10.3 15-3.4 4.4-9.6 11.2-13.6 15-4.1 3.9-10.6 9.3-14.4 12-3.8 2.8-10.6 6.9-15 9.3-4.4 2.3-11.8 5.7-16.5 7.4-4.7 1.7-11.7 3.9-15.5 4.9-3.8 1-12.8 2.4-20 3-10 1-15.9 1-25.5 0.1-6.9-0.7-16.6-2.3-21.5-3.6-4.9-1.3-12.4-3.8-16.5-5.4-4.1-1.6-10.2-4.5-13.5-6.2-3.3-1.8-9.4-5.6-13.4-8.4-4.1-2.8-11.5-8.9-16.4-13.6-4.9-4.7-11.8-12.3-15.3-17-3.5-4.7-8.6-12.8-11.3-18-2.7-5.2-6.5-14.2-8.5-20-1.9-5.8-4.2-14.8-5-20-0.9-5.4-1.6-15.3-1.6-23 0-7.7 0.7-17.6 1.6-23 0.9-5.2 2.9-13.5 4.6-18.5 1.6-5 4.7-12.6 6.8-17 2.1-4.4 6.5-12 9.8-17 3.3-5 9.1-12.3 12.8-16.4 3.8-4.1 10.3-10.1 14.4-13.4 4.1-3.3 10-7.6 13-9.5 3-1.9 9.6-5.4 14.5-7.8 4.9-2.3 12.6-5.3 17-6.7 4.4-1.4 10.5-3 13.5-3.6 3-0.6 9.1-1.5 13.5-2 4.4-0.5 10-0.9 12.5-1zm-88 135.6c0 0.7 11.7 13 26 27.3 14.3 14.3 26.6 26 27.2 26 0.7 0 3.9-2.6 7.1-5.8l5.7-5.7-41.5-41.5 41-41c-9.3-9.3-12.2-12-12.5-12-0.3 0.1-12.3 11.7-26.7 25.8-14.4 14.1-26.2 26.3-26.3 26.9zm114.5-40.8c3.1 3.6 12.2 12.9 22.3 23.1l18.2 18.5-41 41 12.5 12.4 54.5-53.4c-41.5-41.5-53.7-53.5-54-53.5-0.3 0-3.3 2.7-6.5 6z"/>
		<path id="Path 59" fill-rule="evenodd" class="s0" d="m5952.5 704.1c1.6 0 6.1 0.6 10 1.5 3.9 0.8 9.2 2.7 11.9 4.2 2.7 1.5 6.9 4.5 9.4 6.7 2.5 2.2 6.3 6.7 8.4 10 2.2 3.3 4.8 8.9 5.9 12.5 1.4 4.4 2 9.3 2 15.5 0 6.2-0.6 11.1-2 15.5-1.1 3.6-3.7 9.2-5.9 12.5-2.1 3.3-6.1 8-8.8 10.4-2.7 2.4-7.6 5.7-10.9 7.2-3.3 1.6-9.1 3.4-13 4.1-5.5 0.9-8.5 0.8-14-0.2-3.9-0.7-9.7-2.7-13-4.4-3.3-1.6-8.7-5.7-12.1-9-3.8-3.9-7.2-8.5-9.2-12.6-1.7-3.6-3.5-8.5-4.1-11-0.6-2.5-1.1-8.1-1.1-12.5 0-4.4 0.7-10.5 1.5-13.5 0.8-3 2.7-8 4.2-11 1.6-3 5.5-8.2 8.8-11.5 3.8-3.9 8.4-7.3 12.5-9.2 3.6-1.8 8.7-3.6 11.5-4.1 2.7-0.5 6.4-1 8-1.1zm-17.8 31.7c-2.1 2.1-4.6 6-5.7 8.9-1.1 2.9-2 7.3-2 9.8 0 2.5 0.9 6.9 2 9.7 1.1 3 3.6 6.9 5.7 9 2.1 2 5.8 4.6 8.3 5.7 2.6 1.2 6.6 2.1 9.5 2.1 2.7 0 6.6-0.4 8.5-1 1.9-0.5 5.7-2.8 8.4-5.2 2.7-2.4 5.8-6.1 7-8.3 1.6-3.1 2.1-5.8 2.1-12 0-6.2-0.5-8.9-2.1-12-1.2-2.2-4.1-5.8-6.6-8-2.5-2.2-6.2-4.6-8.4-5.2-2.1-0.7-6.2-1.3-8.9-1.3-2.9 0-6.9 0.9-9.5 2.1-2.5 1.1-6.2 3.7-8.3 5.7z"/>
		<path id="Path 60" fill-rule="evenodd" class="s0" d="m5187 689h106v35h35v-35h71v35h-35v35h-71v36h71v35h70v-35h-35v-36h35v36h36v-106h35v35h35v-35h177v247h-35v141h-71v36h35v35h36v-35h35v70h-35v35h35v71h-35v-71h-71v-105h-35v35h-71v-35h-35v35h-36v35h71v71h141v35h-141v-35h-35v35h-36v106h-35v-71h-35v36h-36v-36h-35v36h-35v70h35v-35h35v35h-35v36h-35v35h-35v-35h-36v70h247l-0.5 35.5h-246l-0.5-35.5h-35l-0.5 35.5h-34l-0.5-35.5h35v-35h-35v-177h35v36h35v-71h-35v-35h71v-36h35v-70h-35v-35h-71v35h35v70h-35v-70h-35v35h-36v35h36v71h-212v-35h-71v-36h71v-35h-71v-35h35v-35h-35v-36h35v36h36v35h35v-71h-35v-35h-36v-35h-35v-36h35v36h36v35h35v-71h177v36h35v-36h71v-35h35v-35h35v-36h-35v-35h35v-35h-35v-71h-35v35h-71v106h71v36h-71v35h-35v-177h35v-35h35zm424 70h35v36h36v-71h-71zm-106 36h-35v35h35v-35h35v35h36v-35h-36v-36h-35zm-212 70h35v-35h-35zm318 0h-35v36h35v70h-35v36h35v35h-35v35h35v-35h35v-35h-35v-36h35v-35h36v-35h-36v-71h-35zm-177 106h106v-106h-106zm-141 0h71v36h35v35h35v35h36v-35h70v-35h-70v35h-36v-35h-35v-36h-35v-70h-71zm-70 142h35v-142h-35zm-177-71h35v35h-106v36h36v35h-71v35h71v-35h35v35h35v-35h36v-71h70v-70h-35v35h-71v-35h-35zm-71 0h36v-35h-36zm318 176h-35v36h-35v106h35v-36h35v-106h35v71h71v-35h35v-71h-106v-106h36v71h70v-35h-35v-36h-35v-35h-36v-35h-35zm212-105h35v-36h-35zm-600 141h70v-36h-70zm141 0h35v-36h-35zm141 176h-35v36h35v-36h36v-35h-36z"/>
		<path id="Path 61" class="s0" d="m5258 1342v18h35v-36h-35zm70-212v53h106v-35h-70v-71h-36z"/>
		<path id="Path 62" class="s0" d="m5046 1130.5v17.5h35v35h36v-35h-36v-35h-35z"/>
		<path id="Path 63" class="s0" d="m5646 953.5v17.5h-35v36h35v35h-35v35h71v-141h-36z"/>
		<path id="Path 64" class="s0" d="m5470 918.5v17.5h35v-35h-35z"/>
		<path id="Path 65" fill-rule="evenodd" class="s0" d="m4834 689h247v247h-247zm35 212h177v-177h-177z"/>
		<path id="Path 66" class="s0" d="m4905 812v53h106v-106h-106z"/>
		<path id="Path 67" class="s0" d="m5930 543.6c-3 0.8-8 3.1-11 5.2-4.4 3-6.2 5.1-9 10.6-3.5 6.8-3.5 7.1-3.5 19.5 0 11.4 0.2 13.1 2.5 18.1 1.5 3 3.8 7.1 5.2 9l2.6 3.5c-5.7 6.6-7.7 10.5-9 15-1.7 5.8-2 8.8-1.6 17 0.4 8.1 1 11 3.1 15.5 1.5 3 2.7 5.8 2.7 6.2 0 0.5-1.1 0.8-2.5 0.8h-2.5l0.5 23.5 91.5 0.5v-24l-65.5-0.5c-4.6-8.8-6-13.2-6.3-16.5-0.4-3.7 0-7 1.1-10.3 1.3-3.5 2.7-5.4 5.9-7.5l4.1-2.7 60.7-0.5v-24l-65.5 0.2c-3.6-5.2-5.1-8.5-5.7-10.7-0.5-2.2-0.7-6.5-0.4-9.5 0.3-3 1.4-6.9 2.4-8.5 1-1.7 3.8-4.1 6.3-5.5 4.4-2.5 4.5-2.5 33.6-2.8l29.3-0.2v-23c-56.2 0.1-64.8 0.5-69 1.6z"/>
		<path id="Path 68" fill-rule="evenodd" class="s0" d="m1030 361.5c26.3 0.2 48.1 0.9 59.5 1.9 9.9 0.8 20.3 1.8 23 2.1 2.8 0.4 14.2 2 25.5 3.6 11.3 1.7 25.2 3.9 31 5 5.8 1.1 18.4 3.8 28 6 9.6 2.2 26.3 6.5 37 9.5 10.7 3 24.2 7 30 8.8 5.8 1.9 18.8 6.4 29 10.1 10.2 3.7 26.4 10.1 36 14.2 9.6 4.1 24.7 11 33.5 15.2 8.8 4.3 24.1 12.2 34 17.8 9.9 5.5 23.8 13.5 31 17.8 7.2 4.3 18.4 11.4 25 15.8 6.6 4.4 18.5 12.8 26.5 18.5 8 5.8 20.8 15.5 28.5 21.7 7.7 6.1 17.8 14.4 22.5 18.5 4.7 4 15.7 13.9 24.5 22.1 8.8 8.1 22.3 21.4 30 29.6 7.7 8.1 17.4 18.6 21.6 23.3 4.2 4.7 12.2 14.1 17.9 21 5.7 6.9 16 20.1 23 29.5 7 9.4 17.2 23.7 22.7 32 5.5 8.2 14.8 22.9 20.5 32.5 5.8 9.6 15.3 26.5 21.2 37.5 5.8 11 14.2 28.1 18.7 38 4.5 9.9 11.4 26.1 15.4 36 4 9.9 9.8 25.4 12.9 34.5 3.2 9.1 7.9 23.9 10.6 33 2.7 9.1 6.2 21.9 7.8 28.5 1.7 6.6 4.2 17.2 5.6 23.5 1.4 6.3 3.7 17.4 5 24.5 1.4 7.1 3.6 20.6 5 30 1.4 9.3 3.2 23.7 4 32 0.9 8.2 2 21.5 2.6 29.5 0.6 8 1.1 31.4 1.1 52 0 24.9-0.5 44.6-1.6 58.5-0.9 11.5-2.7 30-4.1 41-1.4 11-4.1 28.5-6 39-1.9 10.5-5.1 26.2-7.1 35-1.9 8.8-5.5 23.2-8 32-2.4 8.8-6.2 21.8-8.4 29-2.3 7.2-7.5 22.2-11.6 33.5-4.2 11.3-11.1 28.7-15.4 38.7-4.4 10.1-7.9 18.8-7.9 19.3 0 0.5 3.1 6.7 7 13.7 3.8 7.1 9.1 18 11.8 24.3 2.7 6.3 6.8 16.9 9.1 23.5 2.3 6.6 5.6 17.2 7.2 23.5 1.6 6.3 3.9 16.5 5 22.5 1.1 6 2.6 16.8 3.4 24 0.8 7.3 1.5 22.1 1.5 34 0 12.1-0.7 26.7-1.5 34.5-0.9 7.4-2.2 17.3-3.1 22-0.9 4.7-2.5 12.3-3.6 17-1 4.7-3.3 13-5 18.5-1.6 5.5-5.5 16.3-8.5 24-3 7.7-8.9 20.7-13.1 29-4.2 8.2-12.1 21.8-17.7 30-5.5 8.3-13.6 19.5-18 25-4.4 5.5-14.7 16.8-23 25.1-8.2 8.3-19.7 18.8-25.5 23.3-5.8 4.6-16.1 12.1-23 16.6-6.9 4.5-17.5 11-23.5 14.3-6 3.4-16.2 8.4-22.5 11.2-6.3 2.8-15.5 6.6-20.5 8.5-5 1.8-15.3 5.2-23 7.4-7.7 2.1-18.7 4.8-24.5 5.9-5.8 1.2-13.4 2.5-17 3.1-3.6 0.6-13 1.6-21 2.2-8.5 0.7-22.3 0.9-33.5 0.6-10.5-0.4-24.2-1.3-30.5-2.2-6.3-0.8-16.2-2.5-22-3.6-5.8-1.2-16.1-3.7-23-5.6-6.9-1.9-16.1-4.7-20.5-6.2-4.4-1.6-11.9-4.5-16.8-6.5-4.8-2-13.3-5.9-18.9-8.7-5.7-2.8-16.1-8.6-23.1-12.8-7.1-4.2-17.4-11-33.2-22.9l-17.5 4.9c-9.6 2.8-24.7 6.8-33.5 9-8.8 2.1-24.1 5.5-34 7.5-9.9 1.9-27 4.8-38 6.4-11 1.6-27.4 3.6-36.5 4.4-9.1 0.9-25 2.1-35.5 2.7-11.8 0.7-31.8 0.9-52.5 0.6-18.4-0.4-39.6-1.1-47-1.7-7.4-0.6-19.8-1.7-27.5-2.6-7.7-0.8-21-2.6-29.5-3.9-8.5-1.3-24-4-34.5-6-10.5-2-27.5-5.8-38-8.4-10.5-2.7-24.8-6.6-31.8-8.7-7-2.2-12.6-4.4-12.3-4.9 0.2-0.5 48.9-101.8 108.1-225 59.2-123.2 127.5-265.3 151.8-315.8 24.3-50.5 44.4-91.8 44.7-91.8 0.3 0 19.2 9 42 19.9 22.8 11 44 20.7 47 21.7 3 1 8 2.4 11 3.2 3 0.7 10.5 1.6 16.5 1.9 7.7 0.4 13.8 0.1 20.5-0.9 5.2-0.9 13.5-3 18.5-4.7 5-1.8 11.5-4.6 14.5-6.3 3-1.6 8.2-4.9 11.5-7.2 3.3-2.4 9.1-7.3 12.8-11.1 3.8-3.8 8.9-9.8 11.3-13.4 2.4-3.6 29-57.6 59-120 30-62.4 56.6-118.2 59.1-124 2.6-5.8 5.5-14.7 6.6-20 1.6-7.8 1.8-12 1.4-23.5-0.4-9.2-1.3-16.6-2.5-21.5-1.1-4.1-3-10-4.2-13-1.2-3-3.5-8-5.2-11-1.7-3-5.2-8.4-7.8-12-2.6-3.6-7.6-9.2-11.1-12.5-3.5-3.3-9.3-8-12.9-10.5-3.6-2.4-16.8-9.4-29.5-15.6-12.7-6.1-74.3-35.8-137-65.9-62.7-30.1-133.1-64-156.5-75.2-23.4-11.2-46.3-21.7-51-23.3-4.7-1.5-12.3-3.4-17-4-5.3-0.8-12.9-1.1-20-0.7-7.8 0.4-14.6 1.4-21 3.2-5.2 1.5-12.9 4.2-17 6.1-4.1 2-10.4 5.5-14 7.9-3.6 2.3-9.9 7.6-14.1 11.6-4.1 4.1-9.3 10.1-11.6 13.4-2.2 3.3-6.2 10.3-8.8 15.5-2.6 5.2-28 57.6-56.3 116.5-28.3 58.9-53 110.8-55 115.5-1.9 4.7-4.3 12.5-5.3 17.5-1.1 5.3-1.9 13.3-1.9 19.5 0 5.8 0.6 14.1 1.5 18.5 0.8 4.4 2.5 11.2 3.8 15 1.3 3.8 4 10.2 5.9 14 2 3.8 6.2 10.6 9.5 15 3.3 4.4 8.9 10.5 12.4 13.6 3.5 3.2 9.4 7.7 13 10 3.7 2.4 25 13.2 47.4 23.9 22.4 10.7 40.9 20 41.2 20.5 0.2 0.5-28.7 61.5-64.3 135.5-35.5 74-71.9 149.8-80.9 168.5-8.9 18.7-46.8 97.7-84.2 175.5-37.4 77.8-69.5 144.6-74.8 155.1l-11.5-7.7c-6.3-4.2-18.3-12.7-26.5-18.8-8.3-6.2-20.4-15.7-27-21.1-6.6-5.4-17.2-14.4-23.5-19.9-6.3-5.5-21.9-20.4-34.6-33-12.7-12.7-28-28.7-34-35.6-6-6.9-14.8-17.2-19.5-23-4.8-5.8-13.5-17-19.5-25-6-8-16.4-22.6-23-32.5-6.7-9.9-15.9-24.3-20.6-32-4.6-7.7-11.9-20.3-16.1-28-4.2-7.7-12.5-24.1-18.6-36.5-6-12.4-14.1-30.2-17.9-39.5-3.8-9.3-9.7-24.7-13.1-34-3.4-9.3-8.6-24.9-11.5-34.5-3-9.6-7.7-26.5-10.5-37.5-2.7-11-6.6-27.9-8.5-37.5-2-9.6-4.7-24.7-6-33.5-1.4-8.8-3.4-24.1-4.5-34-1.1-9.9-2.5-25.4-3.2-34.5-0.7-10.4-0.9-33.2-0.6-62 0.3-31.7 1-50.2 2.1-61 0.9-8.5 2.7-23.8 4.1-34 1.3-10.2 3.8-25.7 5.4-34.5 1.6-8.8 4.6-23.4 6.6-32.5 2.1-9.1 6-24.6 8.7-34.5 2.7-9.9 8-27.2 11.7-38.5 3.8-11.3 10.2-29 14.4-39.5 4.1-10.5 10.9-26.6 15.2-36 4.2-9.4 9.8-21 12.2-26 2.5-5 7.5-14.4 11.1-21 3.5-6.6 11.9-21 18.5-32 6.5-11 16.2-26.3 21.5-34 5.2-7.7 15.4-21.9 22.6-31.5 7.2-9.6 18.7-24.2 25.6-32.5 6.9-8.2 17.5-20.4 23.6-27 6.2-6.6 18.8-19.5 28-28.7 9.3-9.1 22.1-21.3 28.4-27 6.4-5.6 16.3-14.2 22-18.9 5.8-4.7 17.9-14.2 27-21.1 9.1-6.9 22.1-16.3 29-21 6.9-4.7 18.6-12.4 26-17 7.4-4.7 19.8-12.1 27.5-16.5 7.7-4.4 23.5-12.8 35-18.6 11.5-5.8 27.3-13.3 35-16.7 7.7-3.4 22.3-9.5 32.5-13.5 10.2-4 29.1-10.7 42-14.9 12.9-4.1 31.1-9.5 40.5-12 9.4-2.5 23.3-5.8 31-7.5 7.7-1.7 21.4-4.4 30.5-6.1 9.1-1.6 22.8-3.8 30.5-4.9 7.7-1.1 21.2-2.7 30-3.6 8.8-0.8 21.9-1.9 29-2.4 7.1-0.5 31.7-0.8 54.5-0.6zm369.5 978.5c-6 1.2-14.4 3.1-18.5 4.2-4.1 1-14 4.2-22 7-8 2.7-22.2 8.7-31.5 13.3-10 4.9-23.1 12.4-32 18.3-8.3 5.5-19.5 13.7-25 18.3-5.5 4.5-15.9 14.1-23 21.3-7.2 7.2-17.4 18.7-22.7 25.6-5.3 6.9-12.9 17.9-17.1 24.5-4.1 6.6-10.4 17.8-13.9 25-3.6 7.2-8.6 18.4-11.1 25-2.5 6.6-6.1 17.4-8 24-1.9 6.6-4.7 17.8-6 25-1.4 7.2-3.2 17.7-3.9 23.5-0.7 6.1-1.3 20.3-1.3 34 0.1 16.9 0.6 27.1 1.9 36.5 1 7.2 2.7 17.3 3.8 22.5 1.1 5.2 3 13.3 4.3 18 1.3 4.7 3.8 12.8 5.6 18 1.7 5.2 5.6 15.1 8.6 22 2.9 6.9 7.9 17 10.9 22.5 3.1 5.5 9 15.2 13.1 21.5 4.2 6.3 11.7 16.7 16.8 23 5.1 6.3 15.3 17.4 22.7 24.7 7.3 7.3 17.1 16.2 21.8 19.9 4.7 3.7 12.5 9.5 17.5 12.9 5 3.5 14.4 9.4 21 13.2 6.6 3.7 18.5 9.7 26.5 13.2 8 3.6 18.8 7.9 24 9.7 5.2 1.7 13.8 4.3 19 5.8 5.2 1.4 15.6 3.6 23 5 7.4 1.4 18.7 2.9 25 3.5 6.3 0.6 18 1.1 26 1.1 8 0 20.3-0.5 27.5-1 7.2-0.6 17-1.7 22-2.6 5-0.8 14.6-2.9 21.5-4.6 6.9-1.6 19-5.2 27-8 8.3-2.8 22.6-8.9 33.5-14.3 10.7-5.3 24.6-13.2 32-18.1 7.2-4.8 17-12 22-15.9 5-4 13.2-11.3 18.4-16.1 5.2-4.9 13.2-13.2 17.9-18.4 4.6-5.2 11.5-13.5 15.2-18.5 3.7-5 9.3-13 12.6-18 3.2-5 9.1-15.3 13-23 4-7.7 9-18.5 11.2-24 2.2-5.5 5.8-15.6 8-22.5 2.2-6.9 5.2-17.7 6.6-24 1.4-6.3 3.2-16.2 4.1-22 0.9-5.8 2.1-18.2 2.6-27.5 0.7-12 0.7-21.7-0.1-33-0.6-8.8-2-21.5-3-28.2-1.1-6.8-3.1-16.9-4.4-22.5-1.4-5.7-3.9-14.8-5.6-20.3-1.8-5.5-5-14.4-7.1-19.7-2.2-5.4-6.9-15.8-10.5-23-3.7-7.3-9.1-17.3-12.1-22.3-3-5-8.8-13.5-12.8-19-4-5.5-12.4-15.8-18.6-22.9-6.3-7.2-16.7-17.6-23.1-23.3-6.5-5.7-16-13.4-21-17.2-5.1-3.7-13.8-9.7-19.3-13.1-5.5-3.5-15.6-9.2-22.5-12.7-6.9-3.5-18.1-8.5-25-11.2-6.9-2.8-17.7-6.5-24-8.4-6.3-1.9-16.2-4.4-22-5.6-5.8-1.1-14.8-2.8-20-3.7-6.8-1.1-17.8-1.7-38.5-2-20.3-0.2-32.2 0.1-39.5 1-5.8 0.8-15.5 2.4-21.5 3.6z"/>
		<path id="Path 69" class="s0" d="m1308.5 1540.4c-1.7 0.7-4.2 2.5-5.8 4-1.5 1.4-3.4 4.2-4.2 6.1-0.8 1.9-1.5 5.5-1.5 8 0 2.5 0.7 6 1.6 7.7 0.9 1.8 5.8 7.6 10.8 12.8 5.3 5.4 11.1 12.7 13.6 17 2.5 4.1 5.7 11.1 7.2 15.5 1.5 4.4 3.2 11.4 3.9 15.5 0.7 4.4 0.9 11.6 0.6 17.5-0.4 5.5-1.5 13.1-2.7 17-1.1 3.8-3.4 9.9-5.1 13.5-1.7 3.6-4.7 9-6.7 12-2 3-7.8 9.7-12.9 14.7-7.3 7.3-9.5 10.2-10.4 13.5-0.6 2.4-0.8 6.1-0.5 8.3 0.3 2.2 1.8 6 3.3 8.4 1.6 2.6 4.5 5.3 6.8 6.5 2.5 1.3 5.8 2.1 9 2.1 2.9 0 6.7-0.9 9-2 2.2-1.1 8.3-6.2 13.5-11.5 5.3-5.2 12.1-13.3 15.2-18 3.1-4.7 6.9-11.2 8.6-14.5 1.6-3.3 4.2-9.4 5.6-13.5 1.5-4.1 3.6-12 4.8-17.5 1.5-7.4 2.1-13.7 2.1-24 0-9-0.6-17.1-1.6-22.5-0.9-4.7-3-12.6-4.7-17.5-1.7-5-4.7-12.2-6.6-16-2-3.9-5.7-10.2-8.2-14-2.5-3.9-8.8-11.4-14.1-16.8-5.3-5.4-11.4-10.7-13.6-11.7-2.3-1.2-6.1-2-9-1.9-2.7 0-6.3 0.6-8 1.3zm61.5-46.3c-1.4 0.6-4 2.2-5.9 3.7-1.9 1.5-4.3 4.5-5.3 6.7-1 2.2-1.8 5.7-1.8 7.7 0 2.1 0.7 5.4 1.5 7.3 0.8 1.9 5.4 7.9 10.1 13.2 4.8 5.4 11.3 13.8 14.6 18.8 3.3 4.9 8.1 13.5 10.8 19 2.6 5.5 5.9 13.4 7.3 17.5 1.4 4.1 3.5 11.5 4.6 16.5 1.1 4.9 2.5 14.2 3.2 20.5 0.6 6.6 0.9 16 0.5 22-0.4 5.8-1.3 14.3-2.1 19-0.8 4.7-2.6 12.5-4 17.5-1.4 4.9-4.6 13.5-7.1 19-2.4 5.5-6.3 13.3-8.7 17.4-2.3 4.1-8.2 12.4-13.1 18.5-4.9 6.1-9.5 12.6-10.3 14.3-0.7 1.8-1.3 5-1.3 7 0 2.1 0.9 5.6 1.9 7.8 1 2.2 3.4 5.5 5.4 7.2 2.1 1.8 4.9 3.6 6.5 3.9 1.5 0.4 5 0.5 7.7 0.2 3.1-0.2 6.4-1.4 8.6-2.9 2-1.3 5.9-5.1 8.8-8.4 2.8-3.3 8.1-10.1 11.6-15 3.6-5 10-16 14.3-24.5 4.3-8.5 9.4-20.5 11.5-26.5 2-6.1 4.8-16.9 6.4-24 2.5-12.1 2.7-14.7 2.8-37 0-15.7-0.5-26.6-1.3-31.5-0.8-4.1-2.4-11.8-3.7-17-1.3-5.2-3.6-13.1-5-17.5-1.5-4.4-5.2-13.2-8.2-19.5-3-6.3-7.5-14.9-10-19-2.5-4.1-7.5-11.3-11.1-16-3.6-4.7-9.8-11.8-13.6-15.9-3.9-4-8.9-8.2-11.1-9.2-2.2-1-5.8-1.8-8-1.8-2.2 0-5.1 0.5-6.5 1zm61.5-50.2c-2.2 1-5 2.9-6.2 4.2-1.2 1.3-2.9 4.1-3.7 6.1-0.9 2.1-1.6 5.4-1.6 7.3 0 1.9 0.7 5.1 1.5 7 0.8 1.9 5.6 8.3 10.6 14.2 5 6 13 16.6 17.8 23.8 4.7 7.1 10.7 17 13.3 22 2.6 4.9 6.7 14.2 9.3 20.5 2.5 6.3 6.1 16.7 8 23 1.8 6.3 4.2 16.4 5.4 22.5 1.1 6 2.6 16.2 3.2 22.5 0.7 7 1 19 0.6 30.5-0.3 12.6-1.2 23-2.6 31-1.2 6.6-3.5 16.9-5.1 23-1.6 6-4.2 14.6-5.8 19-1.7 4.4-5.1 12.7-7.6 18.5-2.6 5.8-8.1 16.1-12.2 23-4.1 6.9-10.3 16.3-13.7 21-3.5 4.7-7.2 10.1-8.2 12-1 2-1.8 5.6-1.8 8.5 0.1 2.7 0.8 6.3 1.6 8 0.8 1.6 2.8 4.2 4.4 5.7 1.5 1.5 4.5 3.4 6.5 4.2 2.1 0.9 5.3 1.6 7 1.6 1.8 0 5.5-1.1 8.3-2.3 4.1-1.9 6.3-4.1 12.1-11.8 3.9-5.2 9.8-13.5 13-18.4 3.2-5 9.1-15.3 13-23 4-7.7 9.3-19.2 11.8-25.5 2.5-6.3 6.1-17.1 8.1-24 2-6.9 4.7-17.9 6-24.5 1.2-6.6 2.9-17 3.6-23 0.8-6.1 1.3-20 1.3-31 0-11-0.6-25-1.3-31-0.7-6.1-2.4-16.4-3.6-23-1.3-6.6-4-17.6-6-24.5-2-6.9-5.6-17.5-7.9-23.5-2.4-6.1-7.1-16.6-10.6-23.5-3.4-6.9-8.9-16.8-12.2-22-3.3-5.2-8.5-13-11.6-17.4-3.2-4.3-9.5-12.4-14.2-18-5.9-6.9-10-10.8-13-12.3-2.7-1.4-6.3-2.3-9-2.3-2.5 0-6.3 0.9-8.5 1.9zm66.5-53c-1.9 0.4-5 1.6-6.8 2.6-1.8 1.1-4.5 3.8-6 5.9-1.8 2.7-2.8 5.6-3.1 9-0.2 3.1 0.3 6.5 1.2 8.6 0.8 1.9 6.3 9.3 12.1 16.5 5.9 7.1 13.3 16.8 16.5 21.5 3.2 4.7 8.4 12.8 11.6 18 3.2 5.2 8.6 15.1 12 22 3.4 6.9 8.8 18.8 11.8 26.5 3 7.7 7.4 20.3 9.6 28 2.2 7.7 4.9 18.5 6 24 1.1 5.5 2.7 14.5 3.5 20 0.8 5.5 2 17.2 2.7 26 0.7 9.2 0.9 22.6 0.5 31.5-0.3 8.5-1.3 21.1-2.1 28-0.8 6.9-2.2 16.3-3 21-0.9 4.7-2.9 13.7-4.5 20-1.6 6.3-5.1 18-7.9 26-2.7 8-7.7 20.6-11 28-3.4 7.4-8.7 18-11.8 23.5-3.1 5.5-8.9 14.9-12.9 21-4 6-8.9 13.2-10.9 16-2.4 3.3-3.8 6.5-4.2 9.5-0.3 2.5-0.3 6.2 0.1 8.2 0.3 2.2 2 5.3 3.8 7.4 1.8 2 5 4.5 7 5.5 2.1 1.1 5.7 1.9 8 1.9 2.4 0 6.1-0.9 8.3-1.9 2.2-1 5.2-3.1 6.6-4.7 1.4-1.6 4.8-6.1 7.6-9.9 2.7-3.9 7.7-11.3 11-16.5 3.3-5.2 8.7-14.5 12-20.5 3.3-6.1 8.1-15.7 10.8-21.5 2.6-5.8 6.2-14.3 8-19 1.8-4.7 5.1-14.4 7.5-21.5 2.3-7.2 5.5-18.4 7.1-25 1.6-6.6 3.6-16.1 4.5-21 0.9-5 2.3-13.7 3-19.5 0.8-5.8 1.8-22 2.1-36 0.4-16.6 0.2-30.6-0.6-40-0.7-8-2.4-21.3-3.8-29.5-1.4-8.3-4-21.1-5.8-28.5-1.8-7.4-5.2-19.1-7.5-26-2.3-6.9-6.1-17.2-8.5-23-2.3-5.8-6.6-15.2-9.3-21-2.8-5.8-7.7-15.2-11-21-3.2-5.8-9.1-15.5-13.1-21.5-4.1-6.1-10.4-15.1-14.1-20-3.8-5-9.7-12.4-13.3-16.5-3.6-4.1-8.2-8.5-10.4-9.6-2.1-1.2-5.1-2.4-6.8-2.7-1.7-0.3-4.6-0.2-6.5 0.2z"/>
	</g>
</svg>