<svg version="1.2" xmlns="http://www.w3.org/2000/svg" viewBox="0 0 1756 284" width="1756" height="284">
	<title>brainworks-svg</title>
	<style>
		.s0 { fill: #010204 } 
	</style>
	<path id="Path 0" fill-rule="evenodd" class="s0" d="m138.2 0c5.4 0 15.1 0.9 21.6 2 6.4 1.1 14.9 2.8 18.7 3.9 3.9 1 10.9 3.4 15.8 5.5 4.8 2 11.3 5 14.5 6.8 3.1 1.7 8.4 5 11.7 7.1 3.3 2.2 8.9 6.4 12.5 9.3 3.6 2.8 9.7 8.9 13.5 13.4 3.9 4.5 9.4 11.6 12.3 15.8 2.9 4.2 7 11.3 9.2 15.7 2.2 4.4 5.3 12 7 17 1.7 5 4 13.3 5.1 18.5 1.1 5.2 2.3 14.4 2.6 20.5 0.3 6.2 0 15.8-0.7 22-0.6 6.1-2.7 16.3-4.6 22.8-1.9 6.4-4.8 15-6.6 18.9-1.8 4-5 10.4-7.3 14.1-2.2 3.8-6.1 9.6-8.6 13-2.6 3.4-8.2 9.8-12.5 14.2-4.4 4.5-11 10.6-14.9 13.6-3.8 3.1-10.4 7.7-14.5 10.2-4.1 2.5-11.8 6.4-17 8.5-5.2 2.1-13.1 4.8-17.5 6-4.4 1.2-11.4 2.8-15.5 3.7-4.6 0.9-12.8 1.5-21.5 1.5-10.3 0-16.5-0.5-23.5-2-5.2-1.1-12-2.7-15-3.6-3-0.8-9.1-2.9-13.5-4.5-4.4-1.7-11.6-5-16-7.4-4.4-2.3-11.8-7.1-16.5-10.6-4.7-3.4-12.1-9.9-16.5-14.4-4.4-4.4-11-12.3-14.7-17.5-3.8-5.2-9-14-11.8-19.5-2.7-5.6-6.5-15.5-8.5-22.5-2-6.9-4-16.6-4.5-21.5-0.5-4.9-1-14.2-1-20.5 0-6.3 0.7-15.8 1.6-21 0.9-5.2 3-13.8 4.6-19 1.7-5.2 4.9-13.5 7.3-18.5 2.3-5 7.1-13.3 10.6-18.5 3.5-5.2 10.6-13.8 15.9-19.1 5.2-5.3 13.3-12.4 18-15.8 4.7-3.4 12.8-8.4 18-11.1 5.2-2.7 13.3-6.3 18-8 4.7-1.7 14.1-4.2 21-5.6 6.9-1.4 12.7-2.7 12.9-3 0.2-0.2 4.9-0.4 10.3-0.4zm-91.7 142l56.5 56.5 13-13-43-43 43-43-13.6-13.5zm119.6-42.5l43 43-43.1 43 13 13c12.8-12.3 25.5-24.8 36.5-35.6l20-19.7c-8-9.1-20.6-21.9-33.1-34.4l-22.9-22.8zm1544.5-1.9c3.9 0.3 9.3 1 12 1.5 2.8 0.6 8.4 2.7 12.5 4.7 4.1 2.1 9.9 5.9 18.1 13.7l-17.3 14-5.7-3.7c-3.1-2-7.6-4.5-10.1-5.4-3.1-1.2-7.6-1.8-14.5-1.8-8-0.1-10.9 0.3-14.4 1.9-2.5 1.1-4.9 3.2-5.7 4.7-0.8 1.6-1.4 3.9-1.4 5.3 0 1.4 1.3 3.9 2.8 5.6 1.5 1.8 5.4 4.5 8.7 6.2 3.3 1.6 11.2 4.9 17.5 7.4 6.3 2.4 14.9 6.2 19 8.3 4.1 2.1 9.5 5.7 12 7.8 2.5 2.1 5.7 6.1 7.2 8.8 1.5 2.7 3.1 7.8 3.7 11.4 0.6 3.8 0.7 8.6 0.2 11.5-0.5 2.7-1.7 7-2.8 9.5-1.1 2.5-4 6.4-6.4 8.8-2.4 2.4-7.1 5.7-10.4 7.3-3.3 1.6-9.4 3.6-13.5 4.5-5.3 1.1-10.5 1.4-18 1.1-6.9-0.4-12.7-1.3-17-2.7-3.6-1.2-9.2-3.6-12.5-5.3-3.3-1.8-8.6-5.7-17.7-14.2l17.2-15.5 6.3 4.8c3.4 2.6 8.7 5.8 11.7 7.1 3.9 1.7 8 2.6 14 2.9 5.1 0.2 10.4-0.1 13-0.8 2.7-0.8 5.8-2.6 7.8-4.6 2.7-2.8 3.2-4.2 3.2-7.9 0-3.5-0.6-5.2-2.7-7.6-1.5-1.8-5.8-4.7-9.5-6.5-3.7-1.9-11.4-5.2-17-7.5-5.7-2.2-14.3-6.2-19.2-8.7-6.3-3.4-10.5-6.4-14.3-10.5-3.8-4.1-5.7-7.2-6.8-11-0.8-2.8-1.5-7.7-1.5-10.7 0-3 0.7-7.5 1.5-10 0.8-2.5 3.4-6.8 5.8-9.5 2.5-2.8 7-6.4 10.3-8.1 3.3-1.8 7.7-3.7 9.9-4.4 2.2-0.7 6.9-1.6 10.5-2 3.6-0.5 9.7-0.6 13.5-0.4zm-1364.2-46.5c0.4-0.1 0.7 13.5 0.7 30.1 0 16.7 0.3 30.6 0.7 31 0.5 0.4 2.2-0.4 3.8-1.9 1.7-1.4 5.7-3.9 9-5.4 3.3-1.6 9.2-3.4 13-4 5.3-0.8 9-0.8 15 0.1 5.1 0.7 10.7 2.4 15.3 4.6 4.9 2.3 9.2 5.3 13.2 9.4 4.3 4.3 7.2 8.4 10 14.2 2.1 4.6 4.7 11.2 5.7 14.8 1.4 5.1 1.8 10.1 1.7 23.5 0 14.2-0.4 18.3-2.2 25-1.2 4.4-3.5 10.7-5.2 14-1.6 3.3-4.9 8.2-7.3 11-2.4 2.7-6.6 6.4-9.3 8.2-2.7 1.8-7.6 4.2-10.9 5.3-3.3 1.2-9.8 2.4-14.5 2.7-4.7 0.3-11.1 0-14.5-0.6-3.3-0.6-7.8-2-10-3.1-2.2-1-5.8-3.3-8-5-2.2-1.7-4.3-3.1-4.7-3-0.4 0-0.8 2-0.8 9h-26l-0.5-168.1 12.5-5.8c6.9-3.3 12.9-6 13.3-6zm10.7 79.1c-0.8 0.7-3.4 3-5.7 5.2l-4.3 4.1v55.5c7 7 11.2 10 13.8 11.2 4 2 6.4 2.3 15.7 2.3 10.1 0 11.4-0.2 15.5-2.6 2.5-1.5 5.6-3.9 7-5.5 1.4-1.6 3.6-4.9 4.8-7.4 1.2-2.5 2.9-8.3 3.8-13 1.1-5.7 1.4-11.3 1-17-0.3-4.7-1.3-11.2-2.2-14.5-0.8-3.3-2.7-8-4.2-10.4-1.5-2.5-4.3-5.7-6.2-7.3-1.9-1.6-5.7-3.5-8.5-4.3-2.7-0.9-7.9-1.5-11.5-1.5-3.9 0-8.7 0.9-12 2.1-3 1.1-6.2 2.5-7 3.1zm1191.3-79.1c0.4-0.1 0.7 21.5 0.7 47.9 0 31 0.4 48.2 1 48.5 0.6 0.3 10.8-9.6 44.5-44.5h14.3c7.8 0 14.4 0.3 14.7 0.7 0.3 0.5-7.4 8.6-17 18-9.6 9.5-17.5 17.5-17.5 17.8 0 0.3 7.7 15.5 17.1 33.7 9.4 18.3 20 38.8 29.9 57.8h-28.5l-38-73.2-20.5 20.7v52.5h-26l-0.5-168.1 12.5-5.8c6.9-3.3 12.9-6 13.3-6zm-723.4 1.9c3.2-0.1 5.7 0.7 8.1 2.2 1.9 1.3 4.3 3.9 5.4 5.8 1.4 2.4 2 5.1 1.9 8.5-0.1 3.2-0.8 5.9-2.1 7.5-1 1.4-3.4 3.5-5.3 4.8-2.8 2-4.4 2.3-8.9 2-3.4-0.2-6.5-1.1-8.2-2.3-1.5-1.1-3.7-4-4.9-6.5-1.6-3.4-2-5.5-1.6-8.5 0.4-2.2 1.5-5.1 2.5-6.5 1.1-1.4 3.4-3.5 5.2-4.8q3.4-2.2 7.9-2.2zm-259.4 47.5c4.4 0.3 10.6 1.2 13.8 2 3.1 0.8 7.1 2.2 11.7 4.5v46h-26v-28.5l-8.2 0.7c-4.6 0.3-10.5 1.3-13.3 2.2-2.7 0.8-7.5 3-10.5 4.8-3.5 2.1-6.7 5.1-8.8 8.3-1.8 2.7-4 7.2-4.8 10-1.1 3.8-1.4 11.3-1.4 57.5h36v23h-89v-23h27l-0.5-81.5-26.5-0.5v-23h51l0.1 10.2c0 9.9 0.1 10.2 1.7 7.8 0.9-1.4 3.7-4.5 6.2-6.8 2.5-2.4 7.7-5.9 11.5-7.8 3.9-1.9 10.4-4.1 14.5-4.9 4.5-0.9 10.7-1.3 15.5-1zm124.5 0.2c3.6 0.2 9 0.9 12 1.4 3 0.5 8.2 2.2 11.5 3.8 3.3 1.5 7.8 4.5 9.9 6.7 2.1 2.1 5.1 6.6 6.7 9.9 1.6 3.3 3.3 8.5 3.9 11.5 0.6 3.3 1 23.9 1 97h-25l0.1-10.5-3.8 2.9c-2.1 1.7-6.5 4.2-9.8 5.8-3.3 1.5-8.5 3.2-11.5 3.8-3 0.6-8.4 1-12 1-3.6 0-10.1-0.9-14.5-2-4.4-1.2-9.8-3.1-12-4.4-2.2-1.3-6.3-4.8-9.1-7.7-3.2-3.4-5.9-7.6-7.4-11.4-1.9-4.9-2.4-7.9-2.4-16.5-0.1-8.1 0.4-11.7 1.9-16 1.2-3.3 4-7.6 7.1-11 2.8-3 7.8-6.9 11-8.7 3.3-1.7 8.4-3.8 11.4-4.7 3-0.9 9.3-1.9 14-2.3 4.7-0.3 11.8-0.1 15.8 0.6 4 0.6 9.6 1.9 12.5 2.9 2.9 1.1 6 2.2 7 2.5 1.5 0.6 1.7 0 1.7-6.1 0-3.7-0.5-8.5-1.1-10.7-0.6-2.2-2.3-5.6-3.7-7.5-1.5-1.8-4.7-4.3-7.2-5.4-3.6-1.6-6.6-2-15-2-8.8 0-11.8 0.5-18.5 2.8-4.4 1.5-10.9 4.3-14.5 6.2-3.6 1.9-6.5 3.3-6.6 3.2 0-0.2-1.7-4.9-3.7-10.6-2-5.6-3.6-10.4-3.4-10.6 0.1-0.2 3-1.8 6.5-3.5 3.4-1.7 10.4-4.5 15.5-6.2 5.1-1.7 12.8-3.5 17.2-3.9 4.4-0.4 10.9-0.6 14.5-0.3zm-28 75c-3.9 2-6.1 4-7.7 6.8-1.3 2.4-2.3 5.7-2.3 8.2 0 2.4 0.6 5.8 1.4 7.5 0.8 1.8 2.9 4.8 4.7 6.6 2 2 5.5 3.9 8.4 4.8 2.8 0.8 8.2 1.4 12 1.4 3.9 0 9.2-0.7 12-1.7 2.8-0.9 6.8-2.7 9-4.1 2.2-1.3 5.5-3.9 7.3-5.6 3.2-3.1 3.3-3.2 3.2-12.4v-9.2c-5.8-2.4-10-3.8-13-4.5-3-0.7-8.4-1.6-12-1.8-3.6-0.3-9-0.1-12 0.3-3 0.5-8 2.2-11 3.7zm306.5-75.6c2.8 0 8.2 0.6 12 1.4 3.9 0.9 9.7 3 12.9 4.8 3.2 1.7 7.3 4.8 9 6.7 1.8 1.9 4.4 5.5 5.9 8 1.4 2.5 3.6 8.1 4.8 12.5 2.1 7.6 2.2 10.4 2.9 97.5h-26l-0.3-41.8c-0.3-35.8-0.6-42.5-2-47-0.9-2.8-2.9-6.6-4.4-8.3-1.5-1.8-4.8-4.4-7.3-5.8-4-2.3-5.5-2.6-14-2.6-8.7 0-10.2 0.3-15.5 3-4.7 2.4-6.7 4.2-9 8-1.7 2.8-3.4 6.8-3.8 9-0.3 2.2-0.7 22.3-0.7 85.5h-26v-128l25.5 0.5 1 11.6 3-3.1c1.7-1.8 5.7-4.6 9-6.2 3.3-1.7 8.7-3.6 12-4.4 3.3-0.7 8.3-1.3 11-1.3zm304 0.5c4.4 0.2 10.7 1.1 14 2 3.3 0.8 8.4 2.7 11.3 4.2 3 1.5 7.5 4.5 10.2 6.7 2.7 2.2 6.4 6 8.3 8.5 1.9 2.5 4.3 6.3 5.5 8.5 1.1 2.2 3 6.9 4.1 10.5 1.2 3.6 2.6 11 3.2 16.5 0.8 7.2 0.8 12.6 0 19.5-0.6 5.2-1.8 12-2.7 15-0.9 3-3.2 8.6-5.2 12.5-2.1 4.1-6.2 9.5-9.7 13-3.5 3.5-8.9 7.5-13 9.7-3.9 2-10.4 4.3-14.7 5.2-4.3 0.9-11 1.6-15 1.6-4 0-10.4-0.7-14.3-1.5-3.8-0.8-10.4-3.1-14.5-5.2-5.1-2.5-9.4-5.6-13.5-9.7-3.3-3.4-7.4-8.8-9.1-12.1-1.8-3.3-4.2-8.9-5.3-12.5-1.2-3.6-2.5-10.8-3-16-0.5-5.7-0.5-13.5 0.1-19.5 0.5-6.1 2-13.1 3.6-18 1.6-4.4 4.6-10.7 6.8-13.9 2.1-3.3 6.4-8.2 9.4-10.9 3-2.7 8-6.2 11-7.7 3-1.5 7.1-3.2 9-3.9 1.9-0.6 6.2-1.5 9.5-2 3.3-0.6 9.6-0.8 14-0.5zm-26 32.9c-3.6 3.5-5.9 7.1-7.9 12-2.4 5.8-3 8.9-3.4 18-0.2 6.3 0.1 13.3 0.7 16.5 0.6 3 2.2 7.7 3.5 10.5 1.2 2.7 3.9 6.8 5.8 9 2 2.2 5.8 5.1 8.4 6.5 4.3 2.2 6.2 2.5 15.4 2.5 9.2 0 11.1-0.3 15.4-2.5 2.7-1.4 6.5-4.3 8.5-6.6 2-2.2 4.4-5.6 5.3-7.5 0.9-1.9 2.4-6.1 3.3-9.4 0.9-3.4 1.5-10.1 1.5-15.5 0-5.2-0.6-12.1-1.5-15.3-0.8-3.1-2.4-7.5-3.5-9.7-1.1-2.2-3.4-5.6-5.2-7.6-1.8-2-5.5-4.8-8.3-6.2-4.1-2.1-6.7-2.6-14-2.8-6.4-0.2-10.4 0.2-14 1.4-3.3 1.1-6.7 3.4-10 6.7zm213-33c4.4 0.3 10.6 1.2 13.8 2 3.1 0.8 7.1 2.2 11.7 4.5v46h-26v-28.5l-8.2 0.7c-4.6 0.3-10.5 1.3-13.3 2.2-2.7 0.8-7.5 3-10.5 4.8-3.5 2.1-6.7 5.1-8.8 8.3-1.8 2.7-4 7.2-4.8 10-1.1 3.8-1.4 11.3-1.4 57.5h36v23h-89v-23h27l-0.5-81.5-26.5-0.5v-23h51l0.1 10.2c0 9.9 0.1 10.2 1.7 7.8 0.9-1.4 3.7-4.5 6.2-6.8 2.5-2.4 7.7-5.9 11.5-7.8 3.9-1.9 10.4-4.1 14.5-4.9 4.5-0.9 10.7-1.3 15.5-1zm-392.5 2.5l1.5 6.7c0.8 3.8 5.1 21.9 9.5 40.3 4.4 18.4 8.2 33.6 8.3 33.7 0.1 0.1 4.2-17.2 9-38.5 4.9-21.3 9-39.5 9.3-40.5 0.4-1.5 1.7-1.7 10.4-1.7 8.7 0 10.1 0.2 10.5 1.7 0.2 1 4.3 18.9 9.1 39.8 4.7 20.9 8.8 38.2 9 38.5 0.2 0.3 0.6 0.3 0.8 0 0.2-0.3 4.1-16.5 8.6-36 4.5-19.5 8.6-37.4 10-44h12c7.4 0 12 0.4 12 1 0 0.5-7.2 29.1-16 63.5-8.8 34.4-16 62.7-16 63 0 0.3-4.7 0.5-10.5 0.5-10.1 0-10.5-0.1-10.9-2.3-0.3-1.2-4.3-19-9-39.5-4.7-20.4-8.6-37.9-8.6-38.7 0-0.8-0.3-1.5-0.7-1.5-0.4 0-4.5 16.7-9.1 37.2-4.6 20.5-8.7 39-10.2 44.8h-21l-0.9-3.8c-0.5-2-7.7-30.5-16-63.2-8.3-32.7-15.1-59.8-15.1-60.3 0-0.4 5.4-0.7 24-0.7zm-290 1h61v105h35v23h-96v-23h35v-82h-35z"/>
</svg>