<?xml version="1.0" encoding="utf-8"?>
<!-- Generator: Adobe Illustrator 23.0.6, SVG Export Plug-In . SVG Version: 6.00 Build 0)  -->
<svg version="1.1" id="katman_1" xmlns="http://www.w3.org/2000/svg" xmlns:xlink="http://www.w3.org/1999/xlink" x="0px" y="0px"
	 viewBox="0 0 4022.6 654" style="enable-background:new 0 0 4022.6 654;" xml:space="preserve">
<style type="text/css">
	.st0{fill:url(#SVGID_1_);}
	.st1{fill:#FFFFFF;}
	.st2{fill:#010202;}
</style>
<g>
	<g>
		<g>
			<g>
				<linearGradient id="SVGID_1_" gradientUnits="userSpaceOnUse" x1="495.9431" y1="425.4067" x2="289.7621" y2="226.3">
					<stop  offset="0.1271" style="stop-color:#4F4F4F"/>
					<stop  offset="0.4907" style="stop-color:#272727"/>
					<stop  offset="0.8144" style="stop-color:#0B0B0B"/>
					<stop  offset="1" style="stop-color:#000000"/>
				</linearGradient>
				<circle class="st0" cx="390.2" cy="323.3" r="141.7"/>
			</g>
		</g>
		<g>
			<path class="st1" d="M295.5,323.3l56.4-56.4l13.3,13.3L322,323.3l43.1,43.1l-13.3,13.3C351.9,379.7,295.5,323.3,295.5,323.3z"/>
			<path class="st1" d="M484.9,323.3l-56.4-56.4l-13.3,13.3l43.1,43.1l-43.1,43.1l13.3,13.3C428.5,379.7,484.9,323.3,484.9,323.3z"
				/>
		</g>
	</g>
	<g>
		<path class="st2" d="M628.3,302v-18.5h50.1V302H628.3z M628.3,414.1v-18.5h97.8v18.5H628.3z M672.2,258.4c-3.9,0-7.1-1.3-9.8-3.8
			c-2.6-2.5-4-5.6-4-9.3c0-3.8,1.3-7,4-9.6c2.6-2.6,5.9-3.8,9.8-3.8c4,0,7.4,1.3,10,3.8c2.6,2.6,3.9,5.8,3.9,9.6
			c0,3.7-1.3,6.8-3.9,9.3C679.5,257.1,676.2,258.4,672.2,258.4z M666.3,410.2V283.4h21.9v126.8H666.3z"/>
		<path class="st2" d="M795.3,248l-9.8-18.5h64.9l-7.4,18.5H795.3z M790.1,414.1v-18.5h98.8v18.5H790.1z M828.5,414.1V236l21.8-6.5
			v184.6H828.5z"/>
		<path class="st2" d="M1017.7,417.1c-12.4,0-21.2-2.9-26.6-8.8c-5.3-5.9-8-13.7-8-23.5V302h-31.6v-18.5h31.6v-43.7l21.9-10.2v53.9
			h46.2V302h-46.2v75.7c0,4,0.5,7.5,1.4,10.5c0.9,3,2.8,5.4,5.7,7.2c2.9,1.7,7.1,2.6,12.8,2.6c6.5,0,11.8-0.8,15.6-2.4
			c3.9-1.6,7.2-3.2,10-4.9l-2.6,20.6c-3.6,1.8-7.6,3.2-12.2,4.3C1031.3,416.6,1025.3,417.1,1017.7,417.1z"/>
		<path class="st2" d="M1173.8,417.1c-13.2,0-24.5-3.1-33.8-9.2c-9.4-6.1-16.5-14.4-21.5-24.8c-4.9-10.4-7.4-21.9-7.4-34.5
			c0-14.4,2.6-26.7,7.8-36.9c5.2-10.2,12.5-18,21.9-23.3c9.4-5.4,20.4-8.1,33-8.1c10.3,0,19.8,2.2,28.5,6.6
			c8.7,4.4,15.6,11.3,20.8,20.5c5.2,9.2,7.8,21.1,7.8,35.6c0,1.6,0,3.6-0.1,5.9c0,2.3-0.2,5-0.6,8h-101.9v-18.4h80.6
			c-0.2-10.4-2.1-18.5-5.9-24.2c-3.7-5.8-8.3-9.8-13.7-12.1c-5.4-2.3-10.6-3.5-15.6-3.5c-14,0-24.3,4.2-30.8,12.6
			c-6.5,8.4-9.8,19.6-9.8,33.7c0,16.4,3.6,29.3,10.9,38.7c7.3,9.5,17.4,14.2,30.4,14.2c5.5,0,10.9-0.8,16.3-2.5
			c5.4-1.7,10.7-4.5,15.9-8.4l12.4,13.7c-5.7,4.7-12.5,8.6-20.3,11.6C1191,415.6,1182.7,417.1,1173.8,417.1z"/>
		<path class="st2" d="M1282,414.1V239.4l21.9-10v184.6H1282z M1302.6,359.3v-24l51.8-51.9h25.6L1302.6,359.3z M1371.9,414.1
			l-44.8-83.7l15.6-15.1l53.3,98.8H1371.9z"/>
		<path class="st2" d="M1457.2,302v-18.5h50.1V302H1457.2z M1457.2,414.1v-18.5h97.8v18.5H1457.2z M1501.1,258.4
			c-3.9,0-7.1-1.3-9.8-3.8c-2.6-2.5-4-5.6-4-9.3c0-3.8,1.3-7,4-9.6c2.6-2.6,5.9-3.8,9.8-3.8c4,0,7.4,1.3,10,3.8
			c2.6,2.6,3.9,5.8,3.9,9.6c0,3.7-1.3,6.8-3.9,9.3C1508.4,257.1,1505.1,258.4,1501.1,258.4z M1495.1,410.2V283.4h21.9v126.8H1495.1z
			"/>
		<path class="st2" d="M1613.3,414.1V283.4h21.9v24.4l-3.5-4.5c2.2-4.8,5.2-8.9,9.2-12.3c3.9-3.4,8.6-6.1,14-7.9
			c5.4-1.9,11.3-2.8,17.9-2.8c10.9,0,20.2,2,27.8,6c7.6,4,13.3,10.4,17.2,19.1c3.9,8.7,5.9,20.2,5.9,34.3v74.3h-21.8v-78.2
			c0-13.4-3.1-22.8-9.4-28.3c-6.2-5.5-13.9-8.2-23.1-8.2c-6.6,0-12.5,1.1-17.7,3.3c-5.2,2.2-9.2,5.9-12.1,11.1
			c-2.9,5.2-4.4,12.4-4.4,21.5v78.7H1613.3z"/>
		<path class="st2" d="M1840.6,417.1c-8.8,0-16-1.3-21.7-3.9c-5.7-2.6-10.5-5.8-14.5-9.7v10.5h-28V241.9l28-12.4v64.8
			c3.9-4.2,9.2-7.5,15.9-10.1c6.6-2.6,13.4-3.8,20.3-3.8c11.5,0,21.6,2.7,30.3,8.2c8.7,5.5,15.6,13.3,20.5,23.5
			c4.9,10.2,7.4,22.4,7.4,36.6c0,22.1-5.2,39-15.7,50.8C1872.7,411.2,1858.5,417.1,1840.6,417.1z M1836.2,391.9
			c11.6,0,20.2-3.9,25.8-11.7c5.7-7.8,8.5-18.3,8.5-31.6c0-14-2.9-24.7-8.7-32.1c-5.8-7.5-14.3-11.2-25.6-11.2
			c-5.3,0-10.1,0.8-14.3,2.4c-4.3,1.6-7.9,3.5-10.8,5.8c-3,2.3-5.2,4.5-6.7,6.6v57.3c3.3,4.6,7.7,8.2,13.2,10.8
			C1823,390.6,1829.3,391.9,1836.2,391.9z"/>
		<path class="st2" d="M1930.7,414.1v-23.4h28.9v-83.9h-28.9v-23.4h55.2v29l-1.6-3.8c2.1-5.5,5.6-10.4,10.7-14.7
			c5.1-4.3,11.1-7.6,18.1-10c7-2.4,14.5-3.6,22.5-3.6c6.9,0,13,0.7,18.2,2c5.2,1.3,9.5,2.9,12.8,4.7v47.2H2039v-39.4l11,11.9
			c-2.5-0.5-5-0.9-7.3-1.1c-2.4-0.2-4.6-0.3-6.5-0.3c-10.6,0-19.5,1.5-26.6,4.5c-7.2,3-12.6,7.4-16.3,13.1
			c-3.7,5.7-5.5,12.5-5.5,20.5v47.3h39.2v23.4H1930.7z"/>
		<path class="st2" d="M2155.7,417.1c-9.6,0-18.2-1.6-25.8-4.9c-7.6-3.2-13.6-8.1-18-14.6c-4.4-6.5-6.6-14.6-6.6-24.3
			c0-10.1,2.6-18.3,7.9-24.6c5.2-6.3,12-11,20.3-14.1c8.3-3,16.9-4.5,26-4.5c6.9,0,13.2,0.6,18.8,1.8c5.7,1.2,11.2,3.1,16.6,5.8
			v-8.6c0-6.5-1.2-11.6-3.5-15.3c-2.3-3.7-5.6-6.4-9.8-7.9c-4.2-1.5-9.1-2.3-14.7-2.3c-7.5,0-15.1,1.3-22.7,3.8
			c-7.6,2.6-14.6,5.8-20.9,9.6l-8.3-21.9c6.4-3.8,14.3-7.3,23.9-10.3c9.6-3,19.8-4.5,30.6-4.5c5.7,0,11.7,0.6,17.8,1.8
			c6.1,1.2,11.8,3.5,17.1,6.8c5.2,3.3,9.5,8.2,12.6,14.5c3.2,6.3,4.8,14.7,4.8,25v85.6h-26.9v-10.9c-4.2,3.8-9.5,7-15.9,9.8
			C2172.5,415.7,2164.7,417.1,2155.7,417.1z M2160.4,393.9c7.9,0,14.7-1.5,20.4-4.6c5.7-3.1,10.4-6.5,14.1-10.2v-19
			c-3.9-2-8.7-3.7-14.1-5c-5.5-1.3-11.2-2-17.1-2c-8.3,0-15.7,1.6-22,4.9c-6.3,3.2-9.5,8.4-9.5,15.6c0,6.1,2.5,11,7.4,14.8
			C2144.5,392,2151.4,393.9,2160.4,393.9z"/>
		<path class="st2" d="M2281.5,306.8v-23.4h55.4v23.4H2281.5z M2281.5,414.1v-23.4h103.9v23.4H2281.5z M2329.1,262.1
			c-4.7,0-8.6-1.5-11.7-4.5c-3.1-3-4.7-6.8-4.7-11.2c0-4.5,1.6-8.3,4.7-11.2c3.1-3,7-4.5,11.7-4.5c4.8,0,8.7,1.5,11.9,4.5
			c3.2,3,4.8,6.7,4.8,11.2c0,4.4-1.6,8.2-4.8,11.2C2337.9,260.6,2333.9,262.1,2329.1,262.1z M2319.4,412.8V283.4h28v129.4H2319.4z"
			/>
		<path class="st2" d="M2438.7,414.1V283.4h28v28.8l-3.9-7.3c0.7-4.2,3-8.1,6.9-11.8s8.9-6.8,15-9.1c6.1-2.4,12.9-3.6,20.5-3.6
			c9.8,0,18.5,1.8,26.2,5.4c7.7,3.6,13.7,9.5,18.1,17.6c4.4,8.1,6.6,19,6.6,32.7v78h-27.9v-75.2c0-12.4-2.9-21.2-8.7-26.1
			c-5.8-5-12.9-7.5-21.1-7.5c-5.8,0-11.1,1-15.9,3c-4.8,2-8.6,5.4-11.4,10.2c-2.8,4.8-4.2,11.4-4.2,19.9v75.7H2438.7z"/>
		<path class="st2" d="M2620,414.1l-34.9-130.6h25.8l18.7,73.8c0.5,2,1,3.9,1.3,5.9c0.4,2,0.7,4,1.1,6.1c0.4-2.5,0.8-4.6,1.1-6.5
			c0.3-1.8,0.7-3.8,1.3-5.9l17.6-73.4h21.7l17.6,73.6c0.5,2,1,4.1,1.5,6.1c0.4,2,0.9,4.2,1.2,6.6c0.4-2.3,0.7-4.4,1.1-6.4
			c0.4-2,0.9-4,1.5-6.3l18-73.6h26.1l-35.1,130.6h-22.2l-17.2-71.3c-0.5-2-1-4.6-1.7-7.7c-0.7-3.1-1.2-6-1.7-8.6
			c-0.5,2.7-1.2,5.6-1.9,8.7c-0.7,3.1-1.3,5.6-1.7,7.5l-16.7,71.5H2620z"/>
		<path class="st2" d="M2828.7,417.1c-13.3,0-24.8-2.7-34.6-8.2c-9.8-5.5-17.3-13.3-22.7-23.5c-5.3-10.2-8-22.3-8-36.5
			c0-14,2.7-26.1,8-36.4c5.3-10.3,12.9-18.2,22.7-23.8c9.8-5.6,21.3-8.4,34.6-8.4c13.4,0,25,2.7,34.8,8.2
			c9.8,5.5,17.4,13.4,22.7,23.6c5.3,10.3,7.9,22.4,7.9,36.5c0,14.1-2.6,26.2-7.9,36.4c-5.3,10.2-12.9,18.1-22.7,23.6
			C2853.7,414.4,2842.1,417.1,2828.7,417.1z M2828.7,391.9c11.9,0,21.1-3.9,27.4-11.7c6.4-7.8,9.6-18.3,9.6-31.5
			c0-13.2-3.1-23.8-9.4-31.6c-6.2-7.9-15.5-11.8-27.7-11.8c-11.9,0-21.1,3.9-27.5,11.7c-6.4,7.8-9.6,18.4-9.6,31.9
			c0,13.1,3.2,23.6,9.6,31.4C2807.7,388,2816.8,391.9,2828.7,391.9z"/>
		<path class="st2" d="M2925.4,414.1v-23.4h28.9v-83.9h-28.9v-23.4h55.2v29l-1.6-3.8c2.1-5.5,5.6-10.4,10.7-14.7
			c5.1-4.3,11.1-7.6,18.1-10c7-2.4,14.5-3.6,22.5-3.6c6.9,0,13,0.7,18.2,2c5.2,1.3,9.5,2.9,12.8,4.7v47.2h-27.5v-39.4l11,11.9
			c-2.5-0.5-5-0.9-7.3-1.1c-2.4-0.2-4.6-0.3-6.5-0.3c-10.6,0-19.5,1.5-26.6,4.5c-7.2,3-12.6,7.4-16.3,13.1
			c-3.7,5.7-5.5,12.5-5.5,20.5v47.3h39.2v23.4H2925.4z"/>
		<path class="st2" d="M3102.6,414.1V242l28-12.5v184.6H3102.6z M3127.1,362.9v-29.5l52.2-50h33.1L3127.1,362.9z M3193,414.1
			l-42.4-78.4l20.3-19l52.7,97.4H3193z"/>
		<path class="st2" d="M3326.3,417.1c-11.3,0-21.7-2.2-31.2-6.5c-9.5-4.3-17.2-9.9-23-16.7l18.7-16c3.9,3.8,8.9,7.5,15.3,10.9
			c6.3,3.4,13.6,5.1,21.9,5.1c6.6,0,12.2-1.2,16.6-3.5c4.4-2.3,6.7-5.9,6.7-10.9c0-3.5-1.4-6.5-4.2-8.9c-2.8-2.5-6.7-4.8-11.6-6.8
			c-5-2.1-10.8-4.3-17.6-6.7c-8.4-3-15.9-6.2-22.5-9.7c-6.5-3.5-11.7-7.8-15.5-12.8c-3.8-5.1-5.7-11.4-5.7-19.1
			c0-7.3,2.3-13.6,6.8-18.9c4.5-5.2,10.7-9.3,18.4-12.1c7.8-2.8,16.4-4.2,26-4.2c11.3,0,21.1,1.9,29.5,5.8
			c8.3,3.9,15.2,8.8,20.7,14.6l-18.8,14.8c-3.6-3.1-8.1-5.9-13.5-8.4c-5.4-2.5-12-3.8-19.8-3.8c-6.5,0-11.9,1-16.1,3.1
			c-4.2,2-6.3,5.1-6.3,9.2c0,3.1,1.4,5.7,4.2,8c2.8,2.3,6.5,4.3,11.1,6.2c4.6,1.9,9.7,3.8,15.3,5.8c7.6,2.6,15,5.7,22.1,9.1
			c7.1,3.4,13,7.8,17.5,13.2c4.5,5.4,6.8,12.4,6.8,21.2c0,11.9-4.7,21.2-14.1,27.9C3354.7,413.8,3342.1,417.1,3326.3,417.1z"/>
	</g>
</g>
</svg>
